<?xml version="1.0" standalone="no"?>
<!DOCTYPE svg PUBLIC "-//W3C//DTD SVG 20010904//EN"
 "http://www.w3.org/TR/2001/REC-SVG-20010904/DTD/svg10.dtd">
<svg version="1.0" xmlns="http://www.w3.org/2000/svg"
 width="1024.000000pt" height="1024.000000pt" viewBox="0 0 1024.000000 1024.000000"
 preserveAspectRatio="xMidYMid meet">
<metadata>
Created by potrace 1.11, written by Peter Selinger 2001-2013
</metadata>
<g transform="translate(0.000000,1024.000000) scale(0.100000,-0.100000)"
fill="#000000" stroke="none">
<path d="M6013 9501 c-76 -20 -105 -44 -96 -78 5 -23 4 -24 -15 -14 -32 17
-34 14 -27 -31 7 -39 6 -41 -9 -29 -14 12 -16 10 -16 -17 0 -16 7 -35 16 -43
14 -11 14 -13 0 -21 -19 -11 -21 -62 -3 -75 6 -5 52 -20 101 -33 l89 -24 26
32 c14 18 33 32 42 32 28 0 128 74 149 111 32 58 27 105 -16 145 -19 19 -45
34 -58 34 -12 0 -27 5 -33 11 -17 17 -84 17 -150 0z"/>
<path d="M4340 9260 c0 -11 -7 -20 -15 -20 -18 0 -18 -5 -5 -30 14 -27 -6 -36
-30 -15 -14 13 -17 22 -10 34 12 23 -1 43 -20 31 -8 -6 -26 -10 -39 -10 -16 0
-21 -4 -18 -14 4 -10 -5 -16 -29 -20 -27 -6 -37 -14 -50 -44 -23 -51 -18 -91
14 -130 33 -41 133 -82 199 -82 17 0 34 -4 37 -9 3 -4 22 -11 42 -14 28 -5 54
1 108 23 104 44 104 45 80 72 -30 34 -54 75 -54 94 0 38 -96 126 -135 124 -3
0 -18 6 -35 15 -37 19 -40 19 -40 -5z"/>
<path d="M5960 8570 c-14 -4 -48 -19 -76 -34 -29 -14 -57 -26 -63 -26 -6 0
-11 -4 -11 -9 0 -5 -35 -38 -78 -73 -59 -50 -85 -80 -111 -129 -32 -62 -33
-67 -27 -143 8 -92 40 -170 85 -208 31 -27 64 -40 191 -79 41 -13 78 -28 82
-33 9 -13 197 -14 206 -1 13 18 61 45 81 45 11 0 24 6 28 14 4 7 23 21 41 30
17 9 32 21 32 26 0 5 14 16 30 25 17 9 30 21 30 29 0 7 12 26 27 42 15 16 28
31 29 34 0 3 6 17 12 33 13 30 9 105 -7 135 -5 10 -8 28 -5 39 4 13 0 22 -9
26 -8 3 -18 19 -22 36 -4 17 -17 39 -31 50 -13 10 -24 24 -24 30 0 30 -136
123 -202 139 -53 13 -170 14 -208 2z m61 -315 c53 -18 96 -56 105 -92 6 -21 2
-31 -21 -49 -16 -12 -40 -28 -54 -34 -14 -7 -38 -19 -53 -26 -14 -8 -34 -14
-43 -14 -15 0 -15 2 -1 22 21 29 21 69 1 62 -18 -7 -75 32 -75 52 0 20 -24 17
-51 -6 -21 -17 -21 -19 -4 -13 11 3 23 11 27 17 4 6 8 -1 8 -16 0 -15 -7 -34
-16 -43 -15 -15 -15 -18 2 -37 19 -21 19 -21 -3 -16 -16 4 -20 2 -16 -8 3 -8
13 -13 22 -12 9 2 16 -4 16 -12 0 -12 -13 -15 -63 -14 -34 1 -66 4 -70 8 -14
15 -3 96 19 136 24 43 70 77 129 96 50 17 90 16 141 -1z"/>
<path d="M5920 8170 c0 -5 5 -10 10 -10 6 0 10 5 10 10 0 6 -4 10 -10 10 -5 0
-10 -4 -10 -10z"/>
<path d="M4525 8149 c-83 -19 -165 -53 -165 -68 0 -6 -7 -11 -16 -11 -11 0
-14 -5 -10 -16 4 -9 2 -22 -2 -28 -5 -6 -12 -19 -15 -29 -6 -15 -4 -16 14 -6
29 15 35 5 11 -19 -23 -23 -19 -32 15 -32 13 0 22 -4 18 -9 -3 -5 5 -13 17
-17 21 -6 21 -7 3 -20 -29 -22 -9 -28 30 -10 39 19 63 13 44 -10 -16 -19 3
-41 42 -49 17 -4 33 -13 36 -21 3 -8 19 -14 40 -14 23 0 32 -4 27 -11 -5 -8 3
-10 25 -7 18 3 34 1 37 -4 15 -23 105 -1 216 53 10 5 27 9 37 9 11 0 23 5 26
10 3 6 14 10 23 10 9 0 30 7 45 15 16 8 40 16 55 17 15 2 54 17 87 33 44 22
61 37 63 54 6 40 -7 69 -41 95 -28 22 -51 28 -138 36 -120 12 -209 25 -294 45
-93 21 -154 23 -230 4z m277 -91 c14 11 43 10 85 -3 33 -10 38 -36 11 -57 -23
-18 -23 -18 -3 -34 11 -8 29 -13 40 -10 11 3 26 6 34 6 11 0 11 3 1 15 -10 12
-9 16 4 21 15 6 15 8 -4 21 -47 33 15 35 83 2 26 -12 57 -54 57 -77 0 -4 -24
-16 -53 -25 -42 -13 -65 -15 -103 -8 -27 5 -51 7 -53 5 -2 -2 1 -4 7 -4 7 0
12 -5 12 -11 0 -6 -8 -8 -17 -5 -10 3 -60 8 -112 11 -95 6 -132 18 -111 39 5
5 10 17 10 26 0 9 14 30 31 46 16 16 36 34 42 40 8 8 14 9 19 1 4 -8 11 -7 20
1z m-353 -124 c2 -2 -5 -4 -16 -4 -12 0 -23 7 -27 15 -5 13 -2 14 17 4 12 -6
24 -13 26 -15z"/>
<path d="M5011 7984 c0 -11 3 -14 6 -6 3 7 2 16 -1 19 -3 4 -6 -2 -5 -13z"/>
<path d="M3765 7750 c3 -5 8 -10 11 -10 2 0 4 5 4 10 0 6 -5 10 -11 10 -5 0
-7 -4 -4 -10z"/>
<path d="M3777 7703 c-4 -3 -7 -13 -7 -22 0 -13 2 -13 9 -2 5 7 14 11 20 7 7
-5 9 -1 5 8 -7 17 -16 20 -27 9z"/>
<path d="M3790 7635 c-7 -8 -19 -15 -26 -15 -8 0 -14 -4 -14 -8 0 -4 15 -6 34
-4 31 4 34 2 29 -18 -3 -13 -11 -19 -19 -16 -17 7 -18 -1 -2 -18 7 -7 20 -11
30 -8 25 6 23 -15 -2 -23 -11 -3 -20 -13 -20 -21 0 -8 -7 -14 -15 -14 -12 0
-14 -9 -11 -37 6 -44 -1 -58 -20 -42 -11 9 -17 9 -28 0 -9 -8 -16 -8 -20 -2
-4 5 3 16 15 24 26 19 10 31 -46 33 -22 0 -28 -1 -12 -3 33 -5 26 -23 -9 -23
-14 0 -35 -11 -47 -23 -12 -13 -34 -27 -49 -31 -32 -7 -37 -22 -10 -29 16 -4
15 -5 -2 -12 -13 -6 -23 -3 -31 8 -7 10 -23 17 -36 17 l-24 -1 25 -13 25 -14
-28 -13 c-27 -12 -27 -14 -11 -26 16 -12 16 -13 1 -13 -9 0 -21 -9 -27 -20 -6
-11 -18 -20 -28 -21 -15 0 -14 -1 2 -8 17 -7 15 -10 -16 -29 -19 -12 -41 -22
-47 -22 -22 0 -40 -25 -30 -43 8 -13 5 -16 -13 -15 -59 4 -80 -2 -74 -18 4
-11 -1 -22 -14 -31 -11 -8 -20 -21 -20 -29 0 -10 -13 -14 -48 -14 -49 0 -86
-17 -80 -37 2 -6 -6 -18 -17 -27 -20 -14 -20 -15 4 -24 l25 -9 -27 -7 c-15 -3
-27 -13 -27 -20 0 -9 -17 -16 -45 -20 -29 -5 -45 -12 -45 -22 0 -14 -80 -57
-105 -57 -10 0 -10 -5 -2 -18 6 -10 14 -16 17 -14 9 6 50 -24 50 -36 0 -5 -10
-9 -23 -9 -12 0 -28 -9 -35 -20 -7 -11 -20 -20 -29 -20 -15 0 -15 -2 1 -19 16
-17 16 -19 -5 -24 -11 -3 -32 -1 -46 4 -37 14 -42 11 -30 -15 8 -16 16 -21 22
-15 12 12 52 12 60 -1 3 -6 -5 -10 -19 -10 -37 0 -76 -18 -76 -35 0 -8 8 -15
18 -16 9 0 12 -3 5 -5 -6 -3 -24 1 -40 9 -24 12 -32 12 -53 0 l-25 -15 28 6
c26 6 27 5 15 -14 -9 -13 -9 -23 -3 -28 18 -13 31 -46 27 -70 -6 -37 -27 -19
-30 26 -2 29 -8 42 -18 42 -8 0 -14 -4 -14 -10 0 -5 4 -10 10 -10 5 0 8 -21 6
-47 -2 -27 -4 -60 -5 -76 -1 -24 -3 -26 -20 -15 -15 9 -22 8 -36 -5 -9 -9 -13
-22 -10 -28 4 -6 -3 -21 -14 -33 -21 -22 -21 -24 -4 -30 16 -7 14 -9 -10 -23
-37 -19 -57 -11 -57 24 l0 27 -16 -23 c-13 -18 -14 -28 -5 -48 9 -19 14 -23
25 -14 14 12 46 5 46 -9 0 -5 -5 -12 -10 -15 -8 -5 -7 -11 0 -21 9 -10 7 -20
-10 -44 -12 -16 -26 -30 -31 -30 -5 0 -9 -7 -9 -16 0 -12 6 -15 23 -10 12 3
25 6 29 6 3 0 4 9 1 20 -4 13 0 20 10 20 21 0 30 -27 27 -80 -2 -47 -9 -64
-17 -42 -4 9 -8 10 -18 2 -16 -13 -82 -3 -92 13 -4 6 -6 23 -5 38 2 19 -5 32
-24 44 -27 17 -27 17 -20 -6 14 -46 12 -54 -11 -51 -16 2 -23 -2 -23 -12 0
-11 9 -16 26 -16 22 0 86 -23 104 -37 8 -7 -24 -23 -47 -23 -13 0 -23 5 -23
10 0 13 -41 13 -75 0 -22 -8 -26 -15 -23 -35 6 -31 -8 -32 -39 -3 -28 26 -56
16 -61 -21 -3 -21 -1 -22 45 -16 l48 7 -30 -26 c-16 -14 -36 -25 -42 -26 -7 0
-13 -7 -13 -15 0 -9 -6 -12 -17 -9 -11 4 -14 3 -7 -3 13 -9 6 -83 -7 -83 -5 0
-9 -10 -9 -21 0 -18 -3 -19 -15 -9 -8 7 -21 10 -29 7 -10 -4 -13 -1 -9 10 4
11 1 14 -13 11 -12 -2 -21 -16 -26 -43 -10 -45 3 -80 33 -88 11 -3 19 -10 19
-16 0 -14 -37 -15 -45 -1 -3 6 -12 10 -20 10 -11 0 -14 -38 -14 -207 -1 -113
3 -222 9 -242 5 -20 17 -67 26 -106 21 -92 41 -142 74 -185 14 -19 37 -55 49
-80 28 -55 79 -118 191 -233 73 -76 228 -207 244 -207 3 0 31 -16 61 -35 65
-42 221 -115 285 -134 25 -7 74 -25 110 -38 70 -27 197 -50 328 -60 45 -3 82
-9 82 -14 0 -5 11 -9 25 -9 14 0 25 5 25 10 0 6 7 10 15 10 8 0 15 -4 15 -9 0
-10 89 -21 104 -13 6 3 39 7 74 9 35 2 74 9 86 15 20 11 51 15 181 23 105 7
151 23 113 38 -7 3 14 6 46 6 34 1 66 7 75 14 9 8 52 22 96 31 44 10 95 24
113 32 18 8 44 14 57 14 26 0 35 24 13 33 -7 3 -3 6 9 6 13 1 22 4 22 9 -4 22
3 34 16 28 8 -3 27 5 42 18 39 32 68 46 96 46 14 0 31 7 38 16 8 9 30 27 51
40 20 13 39 31 42 41 3 10 16 23 28 28 13 6 31 25 40 44 10 21 31 40 55 51 45
20 69 45 53 55 -5 3 -10 18 -10 32 0 22 2 24 15 13 13 -11 22 -6 55 29 21 22
44 41 50 41 5 0 10 4 10 9 0 6 10 26 21 46 20 34 23 35 40 19 24 -22 48 -14
25 9 -15 15 -15 17 -2 17 9 0 16 -3 16 -7 0 -8 35 -30 100 -65 19 -10 64 -26
100 -35 75 -18 145 -10 265 34 82 30 213 92 221 104 12 20 39 6 108 -53 39
-35 99 -81 133 -103 34 -22 62 -46 63 -52 0 -7 3 -13 8 -13 9 0 159 -95 219
-139 23 -17 58 -38 77 -48 20 -9 36 -20 36 -25 0 -4 7 -8 16 -8 8 0 34 -11 57
-24 23 -13 67 -34 97 -46 30 -12 71 -31 91 -41 20 -10 47 -19 59 -19 12 0 36
-7 53 -15 53 -24 280 -78 422 -100 66 -10 417 -14 434 -4 9 4 52 15 96 23 314
61 584 227 816 502 53 64 63 77 79 109 8 17 23 42 33 58 42 62 101 215 118
307 15 84 15 99 3 125 -13 27 -13 32 6 57 21 28 27 78 10 78 -5 0 -10 -14 -10
-30 0 -28 -2 -29 -20 -18 -15 10 -17 14 -7 16 18 4 17 60 -1 71 -7 4 -14 22
-14 39 -1 24 -6 32 -20 32 -11 0 -18 7 -18 19 0 11 -5 21 -11 23 -7 2 -8 20
-4 52 6 36 13 50 27 54 14 3 16 7 7 13 -8 5 -24 -3 -43 -22 -31 -30 -46 -36
-46 -19 0 6 -10 10 -23 10 -26 0 -46 29 -51 72 -1 15 -9 34 -16 43 -12 15 -12
19 4 30 10 8 15 19 11 25 -6 9 -10 9 -16 -1 -6 -10 -11 -6 -18 14 -6 15 -14
27 -19 27 -20 0 -20 -15 -1 -42 26 -36 19 -46 -15 -21 -16 11 -24 25 -22 35 5
23 -13 35 -25 17 -7 -11 -9 -9 -7 6 3 48 -1 57 -29 53 -18 -2 -27 2 -26 10 2
6 -2 12 -8 12 -7 0 -18 8 -25 18 -10 14 -15 15 -26 4 -11 -11 -10 -14 2 -22
12 -8 11 -10 -6 -10 -11 0 -29 6 -39 14 -16 12 -17 16 -6 29 7 9 10 20 7 26
-3 5 1 12 10 15 8 3 12 11 9 16 -5 8 -15 6 -31 -5 -26 -17 -44 -13 -44 9 0 7
-12 18 -26 24 -24 11 -24 13 -8 29 16 16 15 18 -11 29 l-29 11 30 16 29 16
-37 1 c-26 0 -38 5 -38 14 0 8 -9 18 -20 21 -11 4 -18 10 -15 15 3 5 12 7 19
4 8 -3 17 -1 21 5 3 7 -2 11 -14 11 -12 0 -21 5 -21 10 0 6 -11 10 -24 10 -13
0 -30 7 -37 17 -13 15 -10 16 41 9 30 -4 59 -11 65 -17 11 -11 25 -12 25 -1 0
4 -14 22 -30 41 -17 18 -30 38 -30 42 0 5 -7 9 -15 9 -10 0 -15 10 -15 30 0
23 5 30 19 30 11 0 23 5 26 10 10 16 45 12 39 -4 -3 -8 -1 -17 4 -20 6 -3 15
8 21 24 9 27 8 30 -10 30 -11 0 -22 7 -25 15 -7 17 -44 21 -44 5 0 -5 -6 -10
-12 -10 -18 1 -50 48 -42 61 4 8 13 4 25 -12 20 -27 25 -25 34 13 6 22 3 27
-17 30 -17 2 -23 9 -22 28 1 14 -5 29 -12 33 -19 11 -17 37 2 37 9 0 23 -8 30
-17 8 -10 14 -13 14 -6 0 7 -12 24 -27 39 -18 18 -23 29 -15 32 7 2 12 10 12
19 0 10 -6 12 -19 8 -15 -4 -20 0 -23 17 -2 15 -11 24 -25 26 -22 3 -27 12
-24 40 1 6 -7 12 -18 12 -11 0 -23 4 -26 10 -3 5 -21 17 -40 26 -39 18 -37 33
3 35 23 1 23 2 5 6 -12 2 -27 10 -33 18 -9 11 -5 16 22 23 33 9 32 9 -44 32
-43 13 -78 27 -78 31 0 14 41 21 55 9 11 -9 15 -9 15 -1 0 6 -21 16 -46 22
-43 11 -45 13 -29 25 10 8 17 15 14 16 -32 20 -53 28 -74 28 -14 0 -25 5 -25
10 0 6 9 10 21 10 12 0 17 4 14 11 -4 6 -13 8 -20 5 -7 -2 -15 -2 -18 1 -3 3
-27 7 -53 9 -56 4 -85 24 -36 24 18 0 32 5 32 11 0 6 -10 10 -22 9 -63 -5 -66
15 -5 28 l42 10 -35 2 c-96 4 -138 19 -124 41 3 5 -9 9 -26 9 -23 0 -33 6 -40
24 -7 19 -18 25 -59 31 -28 4 -51 11 -51 16 0 5 -12 15 -27 21 -23 9 -25 12
-10 15 29 7 -46 43 -104 50 -38 4 -49 10 -49 23 0 10 -8 21 -17 24 -12 5 -14
9 -5 18 16 16 -34 68 -66 68 -19 0 -22 4 -17 20 9 27 -9 25 -32 -3 -22 -29
-69 -42 -89 -26 -7 6 -19 9 -26 6 -8 -4 -6 -8 8 -12 16 -5 20 -13 16 -31 -5
-29 -30 -45 -66 -42 -29 3 -34 13 -11 22 19 7 8 36 -14 36 -14 0 -14 2 -1 10
13 9 12 13 -9 30 -29 25 -50 26 -28 2 24 -26 22 -46 -4 -39 -17 5 -20 2 -16
-14 3 -12 0 -22 -9 -26 -17 -6 -19 -33 -3 -33 7 0 0 -11 -15 -25 -15 -14 -30
-25 -34 -25 -11 0 -39 -35 -47 -59 -3 -12 -14 -21 -23 -21 -9 0 -30 -21 -47
-45 -16 -25 -34 -45 -40 -45 -15 -1 -59 -40 -52 -47 4 -3 -13 -18 -36 -34 -23
-15 -81 -59 -129 -96 -88 -69 -154 -114 -209 -145 -17 -9 -38 -23 -47 -30 -25
-21 -201 -104 -253 -119 -24 -7 -48 -19 -52 -26 -4 -7 -15 -13 -23 -13 -9 0
-50 -12 -92 -26 -92 -31 -216 -55 -280 -55 -26 0 -87 -2 -137 -5 -102 -7 -104
-7 -203 -1 -40 3 -78 10 -86 16 -7 6 -16 8 -20 4 -11 -12 -78 -3 -116 14 -19
9 -55 18 -80 21 -25 2 -51 10 -59 15 -19 16 -81 37 -108 37 -12 0 -25 5 -28
10 -4 6 -22 17 -41 25 -19 8 -34 19 -34 24 0 6 -7 8 -16 4 -11 -4 -28 7 -51
32 -25 27 -40 36 -55 32 -14 -4 -22 0 -25 12 -2 10 -24 26 -48 35 -24 10 -56
31 -71 47 -15 16 -36 29 -46 29 -9 0 -22 9 -28 20 -6 11 -17 20 -25 20 -8 0
-15 4 -15 9 0 4 -37 46 -82 93 -46 47 -107 114 -136 149 -29 35 -58 71 -65 79
-6 8 -11 18 -10 22 1 3 -11 21 -27 38 -16 17 -32 40 -35 51 -7 20 -25 27 -25
8 0 -5 -5 -7 -10 -4 -6 4 -8 15 -5 24 6 21 -3 51 -16 51 -5 0 -9 -8 -10 -17 0
-14 -2 -15 -6 -3 -9 26 -34 80 -37 80 -2 0 -9 -7 -16 -15z m3285 -164 c9 -15
-12 -22 -42 -15 -25 7 -25 8 -8 15 28 11 43 11 50 0z m-3248 -68 c-3 -10 -5
-4 -5 12 0 17 2 24 5 18 2 -7 2 -21 0 -30z m-307 -83 c12 -8 11 -10 -7 -10
-13 0 -23 5 -23 10 0 13 11 13 30 0z m4156 -59 c-3 -5 -15 -7 -26 -4 -28 7
-25 13 6 13 14 0 23 -4 20 -9z m275 -170 c-12 -8 -51 -4 -51 5 0 2 15 4 33 4
22 0 28 -3 18 -9z m19 -51 c0 -12 -24 -12 -60 0 -21 7 -19 8 18 9 23 1 42 -3
42 -9z m-4811 -19 c12 -8 9 -11 -11 -16 -34 -9 -61 5 -32 16 25 10 27 10 43 0z
m5051 -275 c0 -3 -4 -8 -10 -11 -5 -3 -10 -1 -10 4 0 6 5 11 10 11 6 0 10 -2
10 -4z m52 -58 c-12 -12 -35 -1 -27 12 3 5 13 6 21 3 10 -4 12 -9 6 -15z
m-5497 -178 c-3 -5 -13 -10 -21 -10 -8 0 -14 5 -14 10 0 6 9 10 21 10 11 0 17
-4 14 -10z m5515 -55 c0 -8 -7 -15 -15 -15 -8 0 -15 7 -15 15 0 8 7 15 15 15
8 0 15 -7 15 -15z m-38 -77 c-13 -13 -26 8 -17 30 6 16 7 16 17 -1 7 -13 7
-22 0 -29z m-5544 4 c2 -7 -3 -12 -12 -12 -9 0 -16 7 -16 16 0 17 22 14 28 -4z
m2800 -44 c3 -29 -19 -60 -50 -71 -10 -4 -19 -13 -19 -22 -2 -26 -4 -29 -21
-54 -16 -22 -18 -23 -47 -8 -26 13 -31 13 -31 1 0 -16 -16 -19 -25 -4 -10 16
-55 -11 -55 -33 0 -16 -3 -17 -14 -8 -11 9 -20 9 -34 2 -16 -8 -21 -6 -31 15
-6 14 -11 33 -11 44 0 27 77 105 103 105 15 0 23 7 25 23 3 20 6 21 19 10 14
-11 17 -11 21 1 4 11 6 11 13 0 6 -11 11 -10 26 3 26 22 43 27 88 25 36 -2 40
-5 43 -29z m2802 -10 c0 -5 -16 -8 -35 -8 -19 0 -35 4 -35 8 0 5 16 8 35 8 19
-1 35 -4 35 -8z m-5527 -85 c-7 -2 -21 -2 -30 0 -10 3 -4 5 12 5 17 0 24 -2
18 -5z m5507 -3 c0 -5 -4 -10 -10 -10 -5 0 -10 5 -10 10 0 6 5 10 10 10 6 0
10 -4 10 -10z m-2752 -41 c2 -15 -7 -34 -24 -52 -14 -15 -23 -34 -20 -42 3 -8
0 -12 -7 -9 -16 6 -48 -97 -36 -110 14 -15 11 -26 -6 -20 -23 9 -19 91 10 176
14 40 25 74 25 75 0 4 36 10 45 9 6 -2 11 -13 13 -27z m-383 -41 c6 -23 3 -33
-9 -40 -9 -5 -16 -17 -16 -26 0 -10 -9 -34 -20 -55 -11 -20 -17 -37 -14 -37
11 0 69 44 82 62 7 10 17 16 22 13 5 -3 25 6 46 20 54 37 82 33 101 -12 11
-28 12 -42 4 -55 -15 -23 -14 -28 4 -28 8 0 15 -4 15 -10 0 -5 9 -10 20 -10
15 0 20 -7 20 -28 0 -31 -27 -121 -41 -136 -5 -6 -9 -22 -9 -37 0 -30 -14 -46
-25 -29 -21 34 0 186 28 198 10 5 9 22 -2 22 -5 0 -19 -11 -32 -24 -16 -17
-28 -22 -39 -16 -18 10 -70 1 -70 -11 0 -5 -6 -9 -14 -9 -7 0 -19 -7 -26 -15
-8 -10 -9 -15 -2 -15 6 0 9 -7 5 -16 -4 -11 -9 -12 -16 -5 -16 16 -37 13 -37
-5 0 -24 -30 -50 -40 -35 -5 9 -11 3 -18 -19 -16 -44 -37 -34 -36 16 1 21 3
46 6 54 3 8 3 12 1 8 -3 -5 -11 -8 -19 -8 -8 0 -14 -6 -14 -12 0 -10 -2 -10
-9 0 -7 11 -11 11 -22 0 -8 -8 -32 -27 -54 -43 -70 -52 -126 -109 -120 -123 3
-9 0 -12 -9 -9 -7 3 -32 -12 -54 -33 -45 -41 -62 -50 -107 -55 l-30 -3 28 11
c29 12 37 37 11 37 -16 0 -59 46 -59 63 0 5 -17 15 -38 22 -21 7 -46 20 -55
28 -9 8 -35 20 -57 27 l-40 13 43 19 c23 10 42 23 42 28 0 5 8 11 18 14 27 9
96 103 102 139 3 21 11 32 22 32 9 0 20 4 24 8 4 4 19 7 34 7 15 0 39 11 54
25 14 13 32 22 39 19 7 -2 40 7 73 22 62 28 140 54 162 54 25 0 11 -29 -15
-33 -26 -4 -26 -4 5 -6 17 0 32 4 32 9 0 6 6 10 13 10 7 0 20 9 30 20 9 11 21
20 26 20 5 0 7 -9 4 -20 -4 -14 0 -20 12 -20 13 0 16 6 11 24 -6 24 1 39 15
31 4 -3 11 -19 14 -37z m-2505 7 c0 -17 -46 -42 -57 -32 -8 9 27 47 44 47 7 0
13 -7 13 -15z m5685 6 c3 -5 1 -12 -5 -16 -5 -3 -10 1 -10 9 0 18 6 21 15 7z
m-790 -17 c30 -19 24 -34 -14 -34 -15 0 -32 -5 -39 -12 -9 -9 -13 -8 -17 4 -6
16 -50 14 -61 -3 -3 -5 -12 -9 -21 -9 -13 0 -13 3 -3 15 7 8 20 15 29 16 9 0
30 9 46 19 38 23 50 24 80 4z m-1815 -38 c126 -6 331 -46 496 -97 33 -11 67
-19 76 -19 8 0 27 -9 41 -20 14 -11 32 -20 41 -20 23 0 113 -47 138 -72 23
-23 90 -42 119 -33 23 7 61 -3 54 -14 -2 -5 -21 -11 -41 -14 -20 -3 -44 -13
-53 -21 -18 -16 -80 -35 -153 -45 -48 -6 -55 -23 -13 -34 13 -3 10 -5 -12 -6
-18 0 -35 5 -40 13 -12 22 -48 25 -47 4 1 -13 -5 -18 -22 -18 -12 0 -26 -5
-29 -10 -4 -6 -12 -7 -18 -3 -7 4 -20 6 -30 4 -15 -2 -17 2 -12 19 7 23 6 23
-97 4 -41 -8 -36 -34 5 -30 17 2 23 1 12 -1 -11 -3 -23 -10 -27 -17 -6 -8 -13
-8 -28 2 -11 6 -28 12 -37 12 -14 0 -15 2 -4 9 7 5 11 14 7 19 -9 15 -38 2
-32 -14 6 -16 -10 -28 -19 -14 -3 6 -18 10 -33 9 -33 -1 -93 8 -100 16 -3 2
-11 0 -19 -6 -11 -10 -10 -14 4 -25 17 -12 17 -13 -3 -14 -12 0 -27 7 -34 15
-7 8 -21 15 -31 15 -10 0 -20 4 -23 9 -3 5 -16 11 -29 13 -19 4 -23 1 -20 -13
4 -15 -3 -17 -74 -14 -82 3 -123 -10 -123 -41 0 -10 -6 -14 -14 -11 -10 4 -15
-4 -18 -24 -3 -16 -1 -29 4 -29 4 0 8 -31 8 -69 0 -48 4 -72 15 -81 8 -7 12
-17 9 -22 -3 -5 -12 -2 -18 8 -12 16 -13 16 -20 -1 -4 -11 -1 -22 6 -27 10 -6
10 -8 0 -8 -8 0 -22 10 -31 22 -12 14 -22 18 -32 13 -7 -5 -22 -10 -33 -10
-10 -1 -23 -9 -28 -18 -5 -10 -16 -17 -24 -17 -12 0 -14 7 -9 30 5 21 2 39
-10 56 -9 14 -14 33 -10 41 3 9 -3 26 -15 38 l-21 22 23 49 c25 52 73 103 98
104 9 0 31 13 50 30 20 17 47 29 63 30 23 0 27 3 22 19 -8 27 13 37 30 15 7
-11 9 -21 4 -22 -5 -2 -7 -8 -3 -13 11 -18 154 -5 154 13 0 6 -18 8 -47 3 -39
-5 -46 -4 -35 6 14 15 16 85 2 94 -5 3 -10 15 -10 25 0 12 -10 21 -30 25 -16
4 -30 11 -30 16 0 5 -9 9 -20 9 -25 0 -25 8 3 60 36 69 63 93 95 85 15 -4 52
-8 82 -9z m1897 2 c-2 -7 0 -21 5 -30 8 -16 6 -17 -17 -6 -17 8 -22 15 -15 23
5 7 7 15 3 18 -3 4 2 7 11 7 10 0 16 -6 13 -12z m196 -21 c5 -12 53 -40 90
-51 10 -3 15 -10 12 -16 -6 -10 -66 16 -73 33 -2 4 -8 7 -14 7 -5 0 -21 9 -35
20 -24 18 -24 20 -5 20 11 0 22 -6 25 -13z m-5168 -17 c3 -5 1 -10 -4 -10 -6
0 -11 5 -11 10 0 6 2 10 4 10 3 0 8 -4 11 -10z m5010 -29 c-4 -14 0 -21 15
-26 11 -3 20 -11 20 -16 0 -17 -26 -9 -48 14 -17 18 -19 26 -10 35 18 18 30
14 23 -7z m96 9 c5 0 9 -4 9 -10 0 -14 -13 -12 -36 6 -17 14 -17 15 -1 10 10
-3 23 -6 28 -6z m-5154 -47 c-3 -10 -5 -2 -5 17 0 19 2 27 5 18 2 -10 2 -26 0
-35z m5798 29 c-3 -3 -11 0 -18 7 -9 10 -8 11 6 5 10 -3 15 -9 12 -12z m-4737
-4 c-3 -7 -13 -15 -24 -17 -16 -3 -17 -1 -5 13 16 19 34 21 29 4z m3692 8 c0
-2 -7 -6 -15 -10 -8 -3 -15 -1 -15 4 0 6 7 10 15 10 8 0 15 -2 15 -4z m-3583
-12 c35 -10 19 -21 -23 -16 -25 3 -32 7 -23 13 17 10 18 10 46 3z m3728 -4 c3
-5 2 -10 -4 -10 -5 0 -13 5 -16 10 -3 6 -2 10 4 10 5 0 13 -4 16 -10z m-308
-6 c-3 -3 -12 -4 -19 -1 -8 3 -5 6 6 6 11 1 17 -2 13 -5z m1278 -14 c3 -5 -3
-10 -15 -10 -12 0 -18 5 -15 10 3 6 10 10 15 10 5 0 12 -4 15 -10z m-2955 -25
c0 -8 -7 -15 -15 -15 -26 0 -18 20 13 29 1 1 2 -6 2 -14z m2154 -5 c10 0 17
-3 13 -6 -10 -10 -57 5 -57 18 0 9 3 9 12 0 7 -7 21 -12 32 -12z m71 6 c8 -7
12 -16 8 -19 -6 -7 -43 15 -43 25 0 13 20 9 35 -6z m-5138 -28 c-3 -7 -5 -2
-5 12 0 14 2 19 5 13 2 -7 2 -19 0 -25z m960 16 c-3 -3 -12 -4 -19 -1 -8 3 -5
6 6 6 11 1 17 -2 13 -5z m401 -1 c-10 -2 -26 -2 -35 0 -10 3 -2 5 17 5 19 0
27 -2 18 -5z m3338 -2 c-5 -8 -56 -3 -56 5 0 2 14 4 31 4 16 0 28 -4 25 -9z
m314 -22 c0 -11 -27 -12 -34 0 -3 4 -3 11 0 14 8 8 34 -3 34 -14z m-723 0
c-14 -8 -22 -8 -30 0 -8 8 -3 11 19 11 25 -1 27 -2 11 -11z m-2762 -9 c-3 -5
-13 -10 -21 -10 -8 0 -14 5 -14 10 0 6 9 10 21 10 11 0 17 -4 14 -10z m4445 6
c0 -3 -4 -8 -10 -11 -5 -3 -10 -1 -10 4 0 6 5 11 10 11 6 0 10 -2 10 -4z
m-6180 -27 c11 -19 10 -20 -10 -9 -11 6 -18 15 -15 21 9 13 13 11 25 -12z
m5107 5 c-3 -3 -12 -4 -19 -1 -8 3 -5 6 6 6 11 1 17 -2 13 -5z m1124 -19 c-1
-15 -24 -12 -29 3 -3 9 2 13 12 10 10 -1 17 -7 17 -13z m-6361 -15 c0 -5 -4
-10 -9 -10 -6 0 -13 5 -16 10 -3 6 1 10 9 10 9 0 16 -4 16 -10z m115 -26 c-11
-8 -20 -23 -20 -32 0 -13 -8 -16 -33 -14 -35 4 -44 -12 -12 -21 24 -6 26 -25
5 -33 -8 -4 -26 4 -39 17 l-24 23 29 18 c16 10 29 22 29 28 0 5 9 10 19 10 11
0 23 5 26 10 3 6 14 10 23 10 15 -1 14 -3 -3 -16z m861 -11 c-10 -10 -19 5
-10 18 6 11 8 11 12 0 2 -7 1 -15 -2 -18z m3497 20 c-7 -2 -19 -2 -25 0 -7 3
-2 5 12 5 14 0 19 -2 13 -5z m-4318 -43 c3 -5 -1 -10 -10 -10 -9 0 -13 5 -10
10 3 6 8 10 10 10 2 0 7 -4 10 -10z m2579 -4 c18 7 14 -37 -7 -69 -10 -15 -22
-25 -27 -22 -14 9 -12 65 1 65 8 0 8 4 0 14 -9 11 -9 15 1 19 7 2 14 0 16 -4
2 -4 9 -6 16 -3z m-2084 -20 c0 -3 -4 -8 -10 -11 -5 -3 -10 -1 -10 4 0 6 5 11
10 11 6 0 10 -2 10 -4z m835 -16 c-3 -5 -12 -10 -20 -10 -8 0 -17 5 -20 10 -4
6 5 10 20 10 15 0 24 -4 20 -10z m-1498 -32 c-3 -8 -6 -5 -6 6 -1 11 2 17 5
13 3 -3 4 -12 1 -19z m643 13 c0 -12 -29 -35 -36 -28 -11 10 5 37 21 37 8 0
15 -4 15 -9z m-524 -39 c-23 -23 -33 -6 -10 19 12 13 20 16 22 9 3 -7 -3 -19
-12 -28z m589 28 c3 -5 1 -10 -4 -10 -6 0 -11 5 -11 10 0 6 2 10 4 10 3 0 8
-4 11 -10z m1979 -14 c-3 -7 2 -18 10 -25 20 -17 6 -66 -20 -66 -16 0 -20 8
-22 49 -2 32 1 52 9 57 17 10 29 2 23 -15z m-2127 -22 c-3 -3 -12 -4 -19 -1
-8 3 -5 6 6 6 11 1 17 -2 13 -5z m113 -9 c0 -2 -7 -5 -15 -9 -9 -3 -15 0 -15
9 0 9 6 12 15 9 8 -4 15 -7 15 -9z m313 8 c-7 -2 -21 -2 -30 0 -10 3 -4 5 12
5 17 0 24 -2 18 -5z m810 0 c-7 -2 -19 -2 -25 0 -7 3 -2 5 12 5 14 0 19 -2 13
-5z m165 0 c-10 -2 -28 -2 -40 0 -13 2 -5 4 17 4 22 1 32 -1 23 -4z m-1969
-22 c8 -14 6 -25 -10 -45 -11 -14 -27 -26 -35 -26 -21 0 -17 28 6 40 11 6 20
20 20 30 0 25 6 25 19 1z m614 5 c6 -16 -2 -28 -14 -20 -12 7 -11 34 0 34 5 0
11 -6 14 -14z m1014 -2 c-3 -3 -12 -4 -19 -1 -8 3 -5 6 6 6 11 1 17 -2 13 -5z
m1898 -24 c-19 -21 -35 -18 -35 6 0 9 10 14 27 14 25 0 26 -1 8 -20z m215 -16
c0 -8 -4 -14 -10 -14 -5 0 -10 9 -10 21 0 11 5 17 10 14 6 -3 10 -13 10 -21z
m-1103 -11 c10 -15 11 -23 3 -28 -7 -4 -14 2 -17 14 -3 12 -9 21 -14 21 -5 0
-9 5 -9 11 0 16 21 6 37 -18z m-2607 -8 c0 -14 -4 -25 -10 -25 -11 0 -14 33
-3 43 11 11 13 8 13 -18z m70 -2 c0 -19 -3 -24 -10 -17 -6 6 -8 18 -4 27 9 24
14 21 14 -10z m-200 -3 c0 -5 8 -10 17 -10 12 0 14 -3 6 -11 -8 -8 -17 -8 -32
0 -24 13 -28 31 -6 31 8 0 15 -4 15 -10z m654 -25 c4 -10 -1 -15 -16 -15 -17
0 -18 2 -8 15 7 8 14 15 15 15 2 0 5 -7 9 -15z m3233 9 c-3 -3 -12 -4 -19 -1
-8 3 -5 6 6 6 11 1 17 -2 13 -5z m-3787 -19 c0 -2 -9 -9 -20 -15 -16 -9 -20
-8 -20 5 0 8 9 15 20 15 11 0 20 -2 20 -5z m2543 -17 c5 -19 8 -20 23 -7 15
13 16 12 9 -11 -8 -25 -22 -40 -38 -40 -5 0 -6 8 -2 19 3 10 -1 24 -10 31 -8
7 -12 16 -9 21 9 15 21 10 27 -13z m-258 -18 c-3 -5 -13 -10 -21 -10 -8 0 -14
5 -14 10 0 6 9 10 21 10 11 0 17 -4 14 -10z m149 -5 c-4 -8 -13 -15 -20 -15
-12 0 -12 3 -2 15 17 19 29 19 22 0z m-2481 -43 c-6 -23 -40 -45 -48 -32 -9
15 4 30 20 23 10 -3 15 2 15 17 0 11 4 19 9 16 5 -3 7 -14 4 -24z m2127 19 c0
-10 -45 -41 -60 -41 -5 0 -10 7 -10 15 0 9 9 15 25 15 14 0 25 5 25 10 0 6 5
10 10 10 6 0 10 -4 10 -9z m970 -5 c0 -20 -19 -31 -32 -18 -6 6 -7 15 -4 21
10 16 36 13 36 -3z m-545 -15 c3 -5 1 -12 -5 -16 -5 -3 -10 1 -10 9 0 18 6 21
15 7z m-2643 -48 c-10 -28 -10 -28 -11 12 -1 28 2 36 10 28 8 -8 8 -19 1 -40z
m2687 15 c-9 -16 -14 -19 -17 -9 -2 7 2 17 9 22 20 13 21 11 8 -13z m903 -20
c44 -23 89 -53 99 -67 21 -27 18 -41 -6 -21 -8 7 -21 10 -29 7 -8 -3 -17 1
-20 9 -3 8 -14 14 -25 14 -11 0 -23 5 -26 10 -4 6 -24 19 -46 30 -25 13 -39
27 -39 40 0 11 3 20 6 20 3 0 42 -19 86 -42z m3256 -4 c-10 -10 -28 6 -28 24
0 15 1 15 17 -1 9 -9 14 -19 11 -23z m-4708 12 c0 -2 -7 -6 -15 -10 -8 -3 -15
-1 -15 4 0 6 7 10 15 10 8 0 15 -2 15 -4z m1040 -31 c0 -9 7 -18 15 -21 10 -4
15 -21 15 -54 0 -27 4 -51 9 -54 4 -3 6 -17 4 -31 -3 -13 -9 -22 -14 -20 -4 3
-6 12 -2 20 3 8 0 15 -6 15 -6 0 -11 -4 -11 -10 0 -5 -5 -10 -10 -10 -7 0 -9
14 -5 38 l7 37 -32 -45 c-28 -41 -30 -43 -24 -15 4 17 11 34 15 40 12 13 11
49 -2 62 -8 8 -8 13 0 17 6 4 11 0 11 -8 0 -19 16 -21 26 -5 4 7 0 16 -9 21
-9 5 -14 15 -11 23 8 20 24 19 24 0z m-3145 -4 c3 -5 1 -12 -5 -16 -5 -3 -10
1 -10 9 0 18 6 21 15 7z m-35 -82 c0 -11 -4 -18 -10 -14 -5 3 -7 12 -3 20 7
21 13 19 13 -6z m3750 -14 c22 -27 5 -37 -19 -11 -19 20 -21 26 -9 26 9 0 21
-7 28 -15z m-246 -170 c-4 -8 -17 -15 -30 -15 -30 0 -31 8 -1 20 32 13 37 12
31 -5z m-3484 -45 c0 -5 -5 -10 -11 -10 -5 0 -7 5 -4 10 3 6 8 10 11 10 2 0 4
-4 4 -10z m3741 -23 c8 -31 5 -32 -35 -8 -42 24 -43 39 -5 37 26 -1 34 -7 40
-29z m-540 2 c16 -16 18 -23 8 -35 -19 -23 -46 -17 -53 11 -12 47 10 59 45 24z
m-137 -307 c-4 -18 -13 -32 -20 -32 -19 0 -18 29 1 36 8 4 15 13 15 22 0 8 2
13 5 10 3 -3 2 -19 -1 -36z m-44 -52 c0 -5 -4 -10 -10 -10 -5 0 -10 5 -10 10
0 6 5 10 10 10 6 0 10 -4 10 -10z m-92 -131 c-2 -6 -8 -10 -13 -10 -5 0 -11 4
-13 10 -2 6 4 11 13 11 9 0 15 -5 13 -11z m-941 -525 c-3 -3 -12 -4 -19 -1 -8
3 -5 6 6 6 11 1 17 -2 13 -5z"/>
<path d="M5042 5940 c-7 -11 -8 -20 -3 -20 9 0 24 30 18 36 -1 2 -8 -6 -15
-16z"/>
<path d="M7480 6140 c0 -5 9 -10 20 -10 11 0 20 5 20 10 0 6 -9 10 -20 10 -11
0 -20 -4 -20 -10z"/>
<path d="M5830 5791 c0 -5 7 -16 15 -25 8 -8 15 -19 15 -25 0 -7 23 -11 55
-11 30 0 55 4 55 9 0 17 -26 30 -49 24 -15 -4 -28 1 -42 16 -20 21 -49 28 -49
12z"/>
<path d="M5970 5776 c0 -2 9 -6 20 -9 11 -3 20 -1 20 4 0 5 -9 9 -20 9 -11 0
-20 -2 -20 -4z"/>
<path d="M5795 5746 c20 -14 35 -12 35 5 0 5 -12 9 -27 9 -26 0 -26 -1 -8 -14z"/>
<path d="M6255 5740 c-3 -5 -1 -10 4 -10 6 0 11 5 11 10 0 6 -2 10 -4 10 -3 0
-8 -4 -11 -10z"/>
<path d="M5038 7632 c7 -5 10 -16 6 -26 -5 -14 -9 -15 -16 -4 -7 9 -8 2 -4
-21 3 -18 6 -40 6 -48 0 -13 3 -13 25 1 24 16 24 16 31 -22 4 -20 11 -46 16
-57 15 -30 85 -91 155 -136 33 -22 64 -46 67 -54 4 -13 9 -13 33 0 15 8 64 22
108 31 91 20 195 63 195 81 0 7 11 15 24 19 30 7 79 59 96 102 11 28 10 35 -5
52 -24 26 -52 25 -60 -1 -5 -15 -13 -19 -28 -15 -12 3 -26 1 -31 -3 -38 -29
-260 -30 -375 -2 -46 12 -87 18 -92 15 -5 -3 -9 0 -9 5 0 6 -9 11 -20 11 -11
0 -20 5 -20 10 0 17 -35 46 -70 58 -38 14 -50 15 -32 4z"/>
<path d="M7410 7480 c0 -5 4 -10 9 -10 6 0 13 5 16 10 3 6 -1 10 -9 10 -9 0
-16 -4 -16 -10z"/>
<path d="M7745 7290 c3 -5 13 -10 21 -10 8 0 12 5 9 10 -3 6 -13 10 -21 10 -8
0 -12 -4 -9 -10z"/>
<path d="M3368 7233 c7 -3 16 -2 19 1 4 3 -2 6 -13 5 -11 0 -14 -3 -6 -6z"/>
<path d="M5290 7182 c0 -5 21 -12 46 -16 66 -9 96 -5 49 6 -81 18 -95 20 -95
10z"/>
<path d="M2980 6940 c0 -5 9 -10 20 -10 11 0 20 5 20 10 0 6 -9 10 -20 10 -11
0 -20 -4 -20 -10z"/>
<path d="M2776 6745 c-9 -25 -8 -27 17 -23 12 2 22 10 22 18 0 21 -31 24 -39
5z"/>
<path d="M8348 6623 c6 -2 12 -11 12 -19 0 -8 5 -14 10 -14 6 0 10 9 10 20 0
14 -6 20 -22 19 -13 0 -17 -3 -10 -6z"/>
<path d="M2608 6588 c9 -9 15 -9 24 0 9 9 7 12 -12 12 -19 0 -21 -3 -12 -12z"/>
<path d="M8435 6580 c-3 -5 1 -10 10 -10 9 0 13 5 10 10 -3 6 -8 10 -10 10 -2
0 -7 -4 -10 -10z"/>
<path d="M2590 6535 c-7 -8 -9 -15 -6 -15 4 0 14 7 22 15 9 8 11 15 6 15 -5 0
-15 -7 -22 -15z"/>
<path d="M8420 6525 c0 -9 6 -12 15 -9 8 4 15 7 15 9 0 2 -7 5 -15 9 -9 3 -15
0 -15 -9z"/>
<path d="M8370 6513 c0 -5 5 -15 10 -23 9 -13 11 -13 19 0 5 8 7 18 5 22 -6
10 -34 11 -34 1z"/>
<path d="M2590 6485 c0 -8 7 -15 15 -15 9 0 12 6 9 15 -4 8 -10 15 -15 15 -5
0 -9 -7 -9 -15z"/>
<path d="M8422 6430 c0 -14 2 -19 5 -12 2 6 2 18 0 25 -3 6 -5 1 -5 -13z"/>
<path d="M2550 6385 c0 -17 5 -25 13 -22 6 2 12 12 12 22 0 10 -6 20 -12 23
-8 2 -13 -6 -13 -23z"/>
<path d="M8320 6394 c0 -9 17 -32 37 -50 38 -35 53 -42 53 -24 0 6 -5 10 -11
10 -14 0 -31 18 -48 53 -16 30 -31 36 -31 11z"/>
<path d="M2460 6386 c0 -9 5 -16 10 -16 6 0 10 4 10 9 0 6 -4 13 -10 16 -5 3
-10 -1 -10 -9z"/>
<path d="M8401 6364 c0 -11 3 -14 6 -6 3 7 2 16 -1 19 -3 4 -6 -2 -5 -13z"/>
<path d="M2520 6354 c0 -8 5 -12 10 -9 6 4 8 11 5 16 -9 14 -15 11 -15 -7z"/>
<path d="M8397 6243 c-12 -11 -8 -23 8 -23 8 0 15 7 15 15 0 16 -12 20 -23 8z"/>
<path d="M2472 6167 c-9 -11 -10 -17 -2 -22 15 -9 23 -1 18 21 -3 15 -4 16
-16 1z"/>
<path d="M8435 6151 c-3 -5 -1 -12 5 -16 5 -3 10 1 10 9 0 18 -6 21 -15 7z"/>
<path d="M2370 6134 c0 -8 5 -12 10 -9 6 3 10 10 10 16 0 5 -4 9 -10 9 -5 0
-10 -7 -10 -16z"/>
<path d="M8422 6095 c4 -25 41 -27 46 -2 2 9 -1 17 -7 17 -6 0 -11 -8 -11 -17
-1 -16 -2 -16 -16 2 l-16 20 4 -20z"/>
<path d="M8708 6073 c7 -3 16 -2 19 1 4 3 -2 6 -13 5 -11 0 -14 -3 -6 -6z"/>
<path d="M2310 6044 c0 -9 5 -14 12 -12 18 6 21 28 4 28 -9 0 -16 -7 -16 -16z"/>
<path d="M2480 6036 c0 -17 23 -27 39 -17 8 5 3 11 -14 19 -20 9 -25 9 -25 -2z"/>
<path d="M2245 6030 c-4 -6 6 -10 22 -10 22 0 25 2 13 10 -19 12 -27 12 -35 0z"/>
<path d="M2310 5980 c0 -5 7 -10 15 -10 8 0 15 5 15 10 0 6 -7 10 -15 10 -8 0
-15 -4 -15 -10z"/>
<path d="M8655 5930 c3 -5 18 -10 32 -10 32 0 28 5 -10 14 -19 4 -26 3 -22 -4z"/>
<path d="M2175 5910 c-8 -13 4 -50 16 -50 5 0 9 14 9 30 0 30 -13 40 -25 20z"/>
<path d="M2122 5820 c-16 -26 -15 -31 3 -24 8 4 15 1 15 -5 0 -6 -7 -11 -15
-11 -8 0 -15 -4 -15 -10 0 -14 38 -50 53 -50 17 0 43 43 28 48 -15 5 -14 49 1
54 9 3 9 6 1 11 -6 4 -18 0 -27 -8 -13 -13 -16 -14 -23 0 -7 12 -10 11 -21 -5z"/>
<path d="M8787 5823 c-11 -10 -8 -43 3 -43 15 0 24 30 13 41 -5 5 -12 6 -16 2z"/>
<path d="M8858 5793 c6 -2 18 -2 25 0 6 3 1 5 -13 5 -14 0 -19 -2 -12 -5z"/>
<path d="M8827 5714 c-8 -8 1 -24 14 -24 5 0 9 7 9 15 0 15 -12 20 -23 9z"/>
<path d="M8940 5664 c0 -8 5 -14 11 -14 7 0 9 -11 6 -27 -3 -19 2 -36 15 -53
l21 -25 -7 25 c-17 56 -18 72 -8 79 6 3 0 11 -14 18 -19 9 -24 8 -24 -3z"/>
<path d="M5210 4781 c0 -6 5 -13 10 -16 6 -3 10 1 10 9 0 9 -4 16 -10 16 -5 0
-10 -4 -10 -9z"/>
<path d="M7817 4118 c-3 -23 -2 -49 3 -58 6 -10 9 3 10 43 0 67 -5 74 -13 15z"/>
<path d="M7734 3956 c7 -34 6 -34 -19 -23 -14 7 -25 20 -25 32 0 15 -3 16 -12
7 -9 -9 -9 -15 0 -24 7 -7 12 -24 12 -39 0 -15 4 -31 10 -34 11 -7 11 -112 0
-135 -13 -27 -20 -80 -10 -80 6 0 10 8 10 18 0 22 22 72 33 72 4 0 7 11 7 25
0 14 5 25 10 25 6 0 10 10 10 23 0 13 5 28 12 35 8 8 8 15 -1 25 -6 8 -10 23
-10 33 5 48 -2 74 -17 74 -13 0 -15 -7 -10 -34z"/>
<path d="M7551 3818 c-18 -40 -32 -56 -47 -51 -6 2 -16 -8 -22 -22 -14 -31
-15 -46 -2 -25 9 13 11 13 20 0 24 -36 32 -94 20 -145 -6 -27 -14 -66 -17 -85
-3 -19 -9 -40 -14 -46 -17 -21 30 -88 49 -69 3 3 5 20 5 38 0 17 3 34 6 37 28
24 55 65 58 88 2 15 6 43 9 62 16 93 14 146 -5 195 -23 60 -41 67 -60 23z"/>
<path d="M7324 3645 c-42 -41 -96 -85 -105 -85 -11 0 -29 -34 -29 -54 0 -12
10 -16 35 -16 48 0 59 -24 52 -121 -5 -80 -30 -149 -52 -149 -8 0 -27 -17 -44
-37 -42 -51 -57 -36 -44 44 7 40 7 83 -1 138 -12 91 -19 105 -47 105 -17 0
-64 -24 -79 -40 -3 -3 -18 -11 -33 -18 -33 -14 -43 -36 -29 -65 36 -79 40
-194 7 -258 -18 -35 -116 -99 -150 -99 -25 0 -27 2 -20 28 27 96 -22 318 -60
271 -16 -21 -55 -40 -65 -34 -6 4 -10 -1 -10 -9 0 -15 -19 -20 -58 -19 -10 1
-12 -6 -7 -25 4 -15 7 -76 6 -137 -2 -114 -13 -150 -49 -161 -9 -3 -25 -10
-35 -15 -10 -5 -22 -7 -27 -4 -5 3 -11 1 -15 -5 -9 -15 -35 -12 -35 4 0 7 7
27 15 42 18 34 19 79 4 160 -12 66 -23 78 -53 61 -12 -6 -34 -12 -51 -13 -16
-1 -47 -8 -68 -15 -43 -16 -53 -38 -43 -100 4 -22 3 -70 0 -105 -9 -82 -29
-99 -134 -109 -19 -2 -41 -5 -49 -7 -11 -2 -14 20 -16 115 -1 64 -4 120 -7
123 -3 3 -23 -2 -43 -10 -21 -9 -67 -21 -103 -27 -37 -5 -68 -12 -71 -14 -2
-3 -4 -42 -3 -87 1 -131 -20 -152 -158 -160 l-55 -3 2 45 c0 25 3 70 5 100 l3
55 -40 -1 c-93 -2 -177 -15 -201 -31 -23 -15 -24 -18 -10 -28 35 -26 5 -141
-38 -150 -11 -2 -34 -6 -51 -10 -16 -3 -37 -5 -45 -4 -8 0 -40 2 -70 4 -30 1
-59 3 -65 3 -6 1 -9 34 -7 82 l4 80 -29 0 c-15 0 -63 -5 -105 -12 l-78 -11 -6
-36 c-4 -20 -14 -50 -23 -67 -16 -29 -21 -31 -69 -31 -29 0 -56 -3 -59 -7 -11
-11 -23 -7 -23 8 0 16 -27 29 -41 20 -5 -3 -9 16 -9 41 0 38 -3 46 -17 43 -10
-1 -24 1 -31 6 -7 4 -26 3 -43 -4 -23 -10 -32 -10 -44 0 -24 20 -52 2 -67 -43
-11 -35 -18 -42 -47 -48 -19 -4 -45 -2 -58 4 -21 9 -24 17 -21 50 l3 39 -55 4
c-30 3 -70 9 -88 14 -32 8 -34 7 -48 -25 -8 -19 -14 -41 -14 -50 0 -17 -25
-20 -36 -4 -4 7 -9 8 -13 1 -3 -5 -20 -7 -38 -5 -32 5 -43 22 -43 70 0 25 -8
32 -47 38 -15 2 -47 7 -70 11 -42 6 -43 6 -57 -27 -20 -47 -22 -48 -69 -38
-64 14 -108 40 -102 60 3 10 1 20 -5 24 -6 4 -8 15 -5 26 5 14 0 20 -19 25
-14 3 -26 10 -26 15 0 5 -7 9 -15 9 -8 0 -15 -4 -15 -9 0 -5 -9 -7 -20 -4 -11
3 -20 12 -20 19 0 31 -50 6 -50 -25 0 -9 -7 -24 -14 -34 -13 -16 -15 -16 -40
4 -15 12 -29 19 -32 16 -10 -10 94 -77 117 -75 18 2 24 -2 23 -14 -1 -12 5
-18 21 -18 13 0 25 -6 28 -14 3 -8 32 -20 64 -27 41 -9 66 -21 84 -41 14 -15
29 -28 32 -28 14 0 7 23 -10 36 -16 12 -16 13 9 14 22 0 27 -4 25 -20 -1 -15
11 -27 48 -48 28 -15 57 -36 66 -47 15 -17 20 -18 42 -6 33 18 48 7 40 -29 -5
-26 -2 -30 15 -30 12 0 23 -4 27 -10 3 -5 12 -7 20 -3 8 3 15 0 15 -6 0 -6 9
-11 19 -11 12 0 18 7 17 17 0 10 9 22 22 28 15 7 22 18 22 37 0 21 5 28 20 28
24 0 26 -13 5 -34 -8 -8 -15 -19 -15 -25 0 -5 -6 -14 -12 -18 -33 -21 -40 -41
-27 -73 8 -16 18 -29 24 -29 35 4 46 -2 40 -21 -5 -15 -2 -20 13 -20 11 0 25
-6 31 -13 8 -11 5 -17 -15 -26 -29 -13 -48 -6 -24 9 11 7 9 12 -11 29 -13 11
-30 20 -38 21 -8 0 -22 7 -31 15 -16 14 -20 13 -51 -12 l-33 -28 40 -6 c21 -4
43 -3 49 2 17 17 44 10 42 -11 -1 -17 -6 -19 -39 -14 -23 4 -38 3 -38 -3 0
-18 25 -32 47 -27 11 3 24 1 28 -6 11 -18 1 -21 -50 -11 -45 8 -49 7 -76 -20
-17 -18 -39 -29 -55 -29 -15 0 -25 -2 -22 -5 2 -3 33 -2 68 2 52 5 60 8 46 18
-22 16 -20 25 4 25 11 0 23 -6 26 -14 4 -10 15 -13 38 -9 22 3 36 0 45 -10 7
-9 18 -15 24 -13 7 1 9 1 5 -1 -20 -12 -4 -23 32 -23 28 0 40 -4 40 -14 0 -8
-4 -18 -10 -21 -16 -10 -12 -45 5 -45 8 0 15 8 15 18 0 24 36 46 44 27 3 -9 0
-12 -10 -8 -8 3 -14 -1 -14 -11 0 -10 8 -16 22 -16 17 0 19 -3 10 -12 -22 -22
-13 -64 22 -102 38 -40 69 -46 116 -21 24 12 30 13 30 2 0 -13 -53 -37 -82
-37 -23 0 -77 -32 -83 -49 -3 -8 6 -31 19 -51 27 -41 25 -50 -12 -50 -20 0
-23 4 -19 23 2 12 1 33 -3 47 l-7 25 -10 -25 c-7 -15 -7 -29 -2 -36 6 -8 2
-13 -12 -17 -20 -5 -20 -7 -6 -21 18 -18 88 -21 104 -5 6 6 23 9 39 7 l29 -4
-25 -11 -25 -10 37 -23 c21 -12 35 -26 32 -31 -7 -12 -54 -11 -54 1 0 6 -15 8
-37 5 -22 -4 -61 1 -93 10 -30 9 -73 20 -95 25 -22 6 -56 14 -75 19 -19 6 -47
13 -62 16 -26 5 -130 120 -212 233 -41 58 -112 125 -126 120 -10 -3 -9 -7 2
-18 7 -8 22 -33 32 -55 10 -22 39 -82 63 -133 43 -91 48 -113 21 -96 -7 5 -31
14 -53 19 -43 11 -61 33 -130 160 -69 128 -104 162 -90 88 9 -52 55 -143 72
-143 7 0 13 -3 13 -7 0 -5 17 -26 36 -48 97 -108 173 -198 195 -231 34 -51
178 -192 244 -238 39 -28 88 -65 111 -83 23 -18 48 -33 56 -33 9 0 19 -7 22
-16 4 -11 13 -13 27 -9 26 9 94 -12 129 -38 l24 -18 -26 3 c-15 2 -30 7 -34
11 -4 4 -15 7 -25 7 -9 0 -19 7 -23 15 -3 8 -15 15 -27 15 -18 0 -19 -2 -9
-15 7 -8 19 -15 26 -15 8 0 14 -4 14 -10 0 -5 9 -10 20 -10 11 0 23 -6 26 -14
3 -8 11 -13 18 -10 17 7 70 -22 57 -31 -6 -3 -11 -14 -11 -24 0 -10 -9 -26
-20 -36 -21 -19 -28 -79 -11 -89 5 -3 7 -16 4 -29 l-6 -22 25 23 c19 17 35 23
59 20 30 -3 34 -6 31 -30 -3 -30 16 -38 40 -15 19 18 118 19 118 1 0 -8 4 -14
8 -14 7 0 33 -58 32 -70 -1 -3 -12 -4 -25 -2 -12 2 -26 -2 -30 -7 -3 -6 -14
-11 -24 -11 -26 0 -88 -65 -96 -100 -9 -40 -29 -48 -70 -25 -25 13 -50 16 -96
14 -62 -4 -63 -4 -83 30 -18 31 -18 35 -3 46 15 11 15 14 3 24 -8 7 -25 9 -40
5 -22 -5 -26 -12 -27 -43 -1 -20 -4 -47 -8 -61 -12 -44 -1 -78 33 -99 28 -17
55 -23 201 -47 75 -12 547 -4 695 11 148 16 211 27 289 51 39 12 49 11 105 -8
270 -92 1141 -99 1219 -9 19 21 31 88 17 96 -5 3 -10 22 -10 42 0 40 -28 93
-49 93 -8 0 -22 -7 -32 -16 -16 -15 -19 -14 -34 16 -13 26 -19 29 -31 19 -11
-9 -14 -8 -14 9 0 11 -7 27 -15 36 -8 8 -18 29 -21 45 -4 17 -11 31 -16 31 -6
0 -7 -11 -3 -27 12 -50 18 -174 8 -184 -6 -6 -24 7 -48 37 -32 39 -37 49 -27
65 10 15 8 26 -8 56 -25 47 -25 56 -1 43 27 -14 31 -13 31 10 0 17 5 19 25 14
28 -7 33 7 10 26 -14 11 -13 14 1 24 14 10 13 14 -5 30 -18 16 -31 18 -93 12
-40 -4 -91 -11 -112 -17 -22 -6 -63 -8 -90 -5 -58 7 -99 -9 -56 -21 21 -7 18
-9 -25 -15 -27 -4 -79 -12 -115 -18 -36 -6 -93 -12 -127 -14 -34 -1 -69 -8
-77 -15 -17 -15 -160 -32 -164 -20 -2 5 -12 9 -22 9 -26 0 -50 10 -50 22 0 5
5 6 10 3 6 -4 17 -2 25 5 10 8 18 8 34 -2 23 -14 36 -6 28 17 -4 9 -19 15 -41
15 -19 0 -37 4 -41 10 -3 5 -12 7 -19 4 -20 -8 -30 14 -16 32 8 8 10 28 7 48
-6 38 -9 38 118 17 33 -6 99 -13 148 -17 48 -4 87 -11 87 -15 0 -14 20 -11 35
5 11 10 51 14 157 15 205 3 413 26 478 53 54 23 346 276 410 355 65 80 134
180 255 368 49 76 97 166 91 172 -2 3 -17 -2 -33 -10 -70 -36 -223 -85 -368
-117 -40 -9 -116 -31 -145 -42 -38 -15 -71 -15 -80 1 -9 15 -9 14 -10 -1 0
-22 -7 -26 -74 -36 -52 -8 -80 -2 -56 13 15 9 12 25 -4 19 -8 -3 -24 4 -35 15
-17 17 -21 18 -32 4 -11 -13 -9 -18 14 -35 15 -11 27 -23 27 -28 0 -7 -41 -18
-86 -23 -11 -1 -28 -8 -37 -16 -9 -7 -24 -10 -33 -7 -8 3 -25 -1 -37 -9 -43
-30 -49 -18 -32 71 3 18 12 37 20 44 8 7 15 25 15 41 0 19 5 29 15 29 9 0 15
-9 15 -25 0 -30 24 -43 45 -25 8 6 19 9 25 5 6 -4 24 8 40 25 16 17 34 29 39
26 23 -15 17 13 -9 44 -17 20 -26 38 -21 43 13 13 31 -1 31 -24 0 -10 5 -19
10 -19 6 0 10 9 10 19 0 11 5 23 10 26 6 3 10 15 10 25 0 24 -54 37 -77 18
-12 -10 -17 -10 -20 -1 -3 7 -21 15 -41 19 -33 6 -34 8 -13 15 12 5 19 13 16
19 -4 6 -10 8 -15 5 -5 -3 -11 -1 -15 5 -3 5 3 10 14 10 12 0 21 6 21 13 1 7
6 5 14 -6 14 -19 83 -43 94 -33 3 3 -2 6 -10 6 -9 0 -18 7 -22 15 -3 8 -13 15
-21 15 -9 0 -13 5 -10 10 3 6 15 10 25 10 30 0 80 33 81 55 1 16 2 15 8 -5 8
-29 34 -34 39 -7 2 9 -1 17 -7 17 -16 0 -13 21 9 63 11 20 20 44 20 52 0 19
32 35 57 29 12 -3 24 -1 27 5 4 6 27 11 52 11 42 0 59 12 32 23 -8 4 -4 8 10
12 24 8 30 31 10 38 -7 2 4 11 25 20 41 18 43 20 23 39 -23 23 -30 58 -12 58
9 0 16 -8 16 -19 0 -25 16 -35 57 -37 18 0 41 -8 51 -17 21 -19 42 -22 42 -7
0 6 -9 10 -20 10 -12 0 -17 5 -14 14 3 8 -4 17 -18 21 -19 7 -14 9 25 12 42 4
47 7 47 29 0 13 -4 24 -10 24 -5 0 -10 -7 -10 -15 0 -8 -9 -15 -20 -15 -16 0
-19 4 -12 18 5 9 7 24 4 32 -5 13 -3 13 11 1 10 -7 17 -10 17 -6 0 4 7 2 16
-6 12 -10 17 -10 23 -1 4 7 24 15 44 19 33 5 35 4 30 -16 -3 -12 -1 -21 6 -21
6 0 11 -7 11 -15 0 -8 -9 -15 -20 -15 -22 0 -28 -25 -7 -33 6 -3 3 -6 -9 -6
-11 -1 -24 3 -30 9 -6 6 -21 6 -39 1 -25 -8 -26 -9 -7 -10 15 -1 22 -7 22 -21
0 -18 3 -19 21 -10 17 10 24 7 44 -14 26 -28 25 -32 -4 -15 -26 17 -62 4 -90
-32 l-24 -30 39 7 c22 3 44 10 49 14 6 4 28 10 50 13 133 21 160 34 126 63
-11 10 -21 24 -21 31 0 17 -37 17 -43 1 -3 -10 -9 -8 -23 4 -17 17 -17 18 4
38 27 26 52 26 59 0 6 -24 26 -22 31 3 2 10 -11 23 -39 36 -52 26 -49 26 -46
0 1 -12 -4 -24 -10 -26 -8 -3 -13 3 -13 15 0 44 -66 68 -101 36 -16 -14 -19
-14 -35 11 -9 14 -23 24 -30 21 -7 -3 -16 -1 -19 4 -4 6 5 14 18 19 14 6 28
16 31 23 3 7 4 0 3 -16 -1 -18 4 -31 12 -34 10 -3 12 1 8 17 -5 22 16 31 28
11 3 -5 17 -10 30 -10 13 0 27 5 30 10 10 16 28 12 22 -5 -7 -17 9 -30 18 -15
4 6 9 26 11 45 3 27 1 33 -11 29 -9 -4 -19 3 -26 20 -7 14 -19 28 -28 31 -25
9 -76 53 -69 60 3 4 25 -7 49 -24 46 -34 72 -40 63 -16 -4 8 -14 15 -24 15
-10 0 -21 7 -24 16 -9 23 -8 24 19 24 14 0 25 -6 25 -13 0 -8 9 -22 20 -32 11
-10 17 -22 13 -27 -8 -14 18 -29 39 -22 9 2 19 0 23 -6 8 -13 34 17 34 40 0
12 -2 11 -10 -2 -17 -30 -29 -20 -29 22 0 40 -14 52 -35 31 -15 -15 -60 23
-52 43 4 10 12 14 17 11 7 -4 10 3 8 21 -2 20 2 29 15 32 14 3 17 -4 17 -42 0
-25 5 -46 10 -46 17 0 29 43 18 63 -8 15 -6 18 9 15 10 -2 17 -11 15 -21 -2
-12 4 -17 20 -17 17 0 19 3 10 12 -18 18 -15 28 8 28 11 0 20 7 20 15 0 12
-10 15 -45 11 -54 -5 -62 4 -38 41 14 22 19 24 21 10 5 -25 22 -21 19 4 -4 38
21 33 29 -6 3 -20 9 -34 12 -31 3 3 11 1 19 -5 10 -9 13 -8 13 0 0 7 12 23 28
36 15 13 21 25 14 25 -7 0 -15 -7 -18 -15 -7 -17 -44 -21 -44 -4 0 6 10 19 21
28 18 15 21 24 15 54 -4 20 -11 37 -17 37 -5 0 -23 -16 -40 -35 -17 -19 -35
-35 -40 -35 -12 0 -11 57 1 65 6 3 10 39 10 80 0 41 -4 77 -10 80 -5 3 -10 14
-10 24 0 9 -10 30 -22 47 l-23 29 -21 -20z m164 -287 c-5 -15 -48 -24 -48 -10
0 14 12 22 33 22 10 0 17 -5 15 -12z m-245 -197 c5 -22 -1 -33 -14 -25 -12 7
-12 44 0 44 5 0 11 -9 14 -19z m112 -100 c3 -5 1 -12 -5 -16 -5 -3 -10 1 -10
9 0 18 6 21 15 7z m-128 -58 c-2 -2 -17 1 -32 7 -23 9 -25 13 -14 26 12 14 15
14 31 -6 10 -13 17 -25 15 -27z m-57 -3 c0 -5 -4 -10 -10 -10 -5 0 -10 5 -10
10 0 6 5 10 10 10 6 0 10 -4 10 -10z m-268 -26 c9 -19 18 -24 35 -21 13 2 23
0 23 -4 0 -5 -16 -9 -35 -9 -28 0 -35 4 -35 20 0 11 -4 20 -10 20 -5 0 -10 5
-10 10 0 20 21 10 32 -16z m38 16 c0 -5 -2 -10 -4 -10 -3 0 -8 5 -11 10 -3 6
-1 10 4 10 6 0 11 -4 11 -10z m147 -32 c-3 -7 -5 -2 -5 12 0 14 2 19 5 13 2
-7 2 -19 0 -25z m-67 6 c0 -9 -7 -14 -17 -12 -25 5 -28 28 -4 28 12 0 21 -6
21 -16z m-193 -10 c-3 -3 -12 -4 -19 -1 -8 3 -5 6 6 6 11 1 17 -2 13 -5z m233
-9 c0 -8 -7 -15 -15 -15 -9 0 -18 -7 -21 -15 -4 -8 -10 -15 -15 -15 -5 0 -9 7
-9 15 0 8 6 15 14 15 8 0 16 7 20 15 3 8 10 15 16 15 5 0 10 -7 10 -15z m-222
-42 c-10 -2 -26 -2 -35 0 -10 3 -2 5 17 5 19 0 27 -2 18 -5z m92 -14 c0 -5 -9
-9 -20 -9 -22 0 -27 16 -7 23 15 5 27 -1 27 -14z m145 0 c-8 -12 -35 -12 -35
0 0 11 22 20 33 14 4 -2 5 -9 2 -14z m-215 -24 c-8 -9 -5 -14 10 -18 25 -6 29
-71 5 -81 -13 -4 -14 -10 -5 -26 9 -16 8 -20 -5 -20 -18 0 -20 -16 -4 -26 8
-4 6 -10 -7 -17 -13 -7 -19 -7 -22 1 -2 7 -18 12 -35 12 -18 0 -39 4 -46 9
-16 10 5 18 64 23 35 4 50 38 16 38 -12 0 -21 5 -21 10 0 6 11 10 24 10 13 0
27 7 30 16 5 13 1 15 -20 11 -16 -3 -27 0 -31 9 -6 16 -64 19 -79 4 -8 -8 -15
-6 -23 4 -20 24 -4 36 50 36 28 0 48 4 45 9 -3 5 10 9 29 9 28 0 33 -3 25 -13z
m200 0 c14 -8 19 -14 13 -15 -7 0 -13 -7 -13 -15 0 -24 -37 -18 -43 7 -11 39
3 46 43 23z m-90 -4 c0 -14 -18 -23 -30 -16 -6 4 -8 11 -5 16 8 12 35 12 35 0z
m-175 -61 c3 -6 -1 -13 -10 -16 -19 -8 -30 0 -20 15 8 14 22 14 30 1z m-60
-30 c-3 -5 -13 -10 -21 -10 -8 0 -14 5 -14 10 0 6 9 10 21 10 11 0 17 -4 14
-10z m219 -5 c4 -11 -2 -15 -24 -15 -20 0 -30 5 -30 15 0 9 9 15 24 15 13 0
26 -7 30 -15z m334 -4 c8 -4 14 -12 15 -17 1 -5 13 -9 27 -9 14 0 25 -4 25
-10 0 -13 -78 -13 -87 0 -10 13 -10 45 0 45 4 0 13 -4 20 -9z m-498 -21 c0 -5
-2 -10 -4 -10 -3 0 -8 5 -11 10 -3 6 -1 10 4 10 6 0 11 -4 11 -10z m-2870 -21
c0 -5 -15 -7 -32 -5 -45 6 -46 6 -23 15 22 9 55 3 55 -10z m78 -1 c-6 -18 -28
-21 -28 -4 0 9 7 16 16 16 9 0 14 -5 12 -12z m2702 -7 c-13 -26 -13 -31 5 -31
8 0 15 -4 15 -10 0 -12 -10 -13 -29 -1 -12 8 -13 14 -3 35 6 14 14 26 17 26 3
0 1 -9 -5 -19z m-336 -53 c-9 -14 -24 2 -24 25 1 21 1 21 15 3 8 -10 12 -23 9
-28z m142 -45 c-4 -8 -15 -13 -28 -11 -34 5 -32 58 2 75 24 12 25 11 28 -18 2
-17 1 -38 -2 -46z m-2436 47 c0 -11 -7 -20 -15 -20 -8 0 -15 9 -15 20 0 11 7
20 15 20 8 0 15 -9 15 -20z m124 5 c3 -9 0 -15 -9 -15 -8 0 -15 7 -15 15 0 8
4 15 9 15 5 0 11 -7 15 -15z m126 5 c0 -5 -11 -10 -25 -10 -14 0 -25 5 -25 10
0 6 11 10 25 10 14 0 25 -4 25 -10z m50 -10 c0 -5 -9 -10 -21 -10 -11 0 -17 5
-14 10 3 6 13 10 21 10 8 0 14 -4 14 -10z m112 -32 c-28 -11 -32 -9 -32 17 0
26 0 26 24 8 21 -16 22 -19 8 -25z m184 -17 c-4 -30 -2 -52 4 -56 13 -8 13
-25 -1 -25 -6 0 -22 -9 -36 -20 -31 -24 -63 -26 -63 -4 0 9 7 14 18 13 35 -4
52 11 45 42 -4 20 0 35 11 48 12 13 14 21 6 26 -12 7 -4 25 12 25 7 0 8 -17 4
-49z m789 15 c37 -8 91 -51 75 -61 -5 -3 -18 1 -27 10 -19 20 -60 12 -86 -16
-10 -10 -22 -19 -28 -19 -18 0 -4 24 19 35 28 12 37 35 14 35 -21 1 -52 23
-52 39 0 8 8 7 28 -3 15 -7 41 -17 57 -20z m812 -13 c-3 -10 -5 -2 -5 17 0 19
2 27 5 18 2 -10 2 -26 0 -35z m-1653 16 c-3 -5 -10 -7 -15 -3 -5 3 -7 10 -3
15 3 5 10 7 15 3 5 -3 7 -10 3 -15z m896 11 c0 -5 -4 -10 -10 -10 -5 0 -10 5
-10 10 0 6 5 10 10 10 6 0 10 -4 10 -10z m867 -27 c-3 -10 -5 -4 -5 12 0 17 2
24 5 18 2 -7 2 -21 0 -30z m-2030 -5 c14 -13 34 -31 44 -40 10 -10 24 -18 29
-18 16 0 12 -17 -6 -24 -10 -4 -14 -14 -11 -26 4 -17 2 -18 -14 -10 -16 9 -17
14 -7 30 11 17 9 22 -11 36 -13 10 -31 25 -40 36 -8 10 -23 18 -33 18 -9 0
-20 5 -23 10 -12 20 48 10 72 -12z m2380 16 c-3 -3 -12 -4 -19 -1 -8 3 -5 6 6
6 11 1 17 -2 13 -5z m-2502 -24 c-11 -5 -31 -9 -45 -9 -23 0 -23 1 -5 9 11 5
31 9 45 9 23 0 23 -1 5 -9z m1165 -4 c0 -3 -4 -8 -10 -11 -5 -3 -10 -1 -10 4
0 6 5 11 10 11 6 0 10 -2 10 -4z m1040 0 c0 -3 -4 -8 -10 -11 -5 -3 -10 -1
-10 4 0 6 5 11 10 11 6 0 10 -2 10 -4z m-196 -23 c8 -20 -3 -103 -14 -103 -14
0 -20 30 -13 75 6 47 16 57 27 28z m-1784 -3 c0 -5 -4 -10 -10 -10 -5 0 -10 5
-10 10 0 6 5 10 10 10 6 0 10 -4 10 -10z m2070 -20 c-35 -33 -38 -34 -59 -21
-12 8 -11 13 10 30 13 11 37 20 53 21 l28 0 -32 -30z m-2030 11 c0 -6 -4 -13
-10 -16 -5 -3 -10 1 -10 9 0 9 5 16 10 16 6 0 10 -4 10 -9z m2105 -1 c3 -5 1
-10 -4 -10 -6 0 -11 5 -11 10 0 6 2 10 4 10 3 0 8 -4 11 -10z m-184 -32 c-18
-5 -43 -7 -55 -5 -14 3 -11 5 11 6 17 0 34 5 38 11 3 5 13 6 23 3 12 -5 8 -9
-17 -15z m-2236 -7 c-3 -6 -11 -8 -17 -5 -6 4 -5 9 3 15 16 10 23 4 14 -10z
m1270 -10 c-3 -6 -11 -11 -16 -11 -5 0 -4 6 3 14 14 16 24 13 13 -3z m735 -18
c0 -23 -4 -33 -9 -27 -9 8 -4 64 5 64 2 0 4 -17 4 -37z m-1730 17 c0 -5 -5
-10 -11 -10 -5 0 -7 5 -4 10 3 6 8 10 11 10 2 0 4 -4 4 -10z m343 3 c4 -3 -7
-14 -23 -24 -17 -11 -30 -23 -30 -29 0 -5 -7 -10 -15 -10 -8 0 -15 7 -15 15 0
8 7 15 15 15 8 0 15 9 15 20 0 14 7 20 23 20 13 0 27 -3 30 -7z m-566 -9 c-3
-3 -12 -4 -19 -1 -8 3 -5 6 6 6 11 1 17 -2 13 -5z m53 -14 c0 -5 -5 -10 -11
-10 -5 0 -7 5 -4 10 3 6 8 10 11 10 2 0 4 -4 4 -10z m994 -11 c-3 -5 -10 -7
-15 -3 -5 3 -7 10 -3 15 3 5 10 7 15 3 5 -3 7 -10 3 -15z m1022 6 c10 -8 14
-15 7 -15 -6 0 -18 -3 -27 -6 -12 -4 -16 0 -16 15 0 25 9 26 36 6z m134 11 c0
-3 -4 -8 -10 -11 -5 -3 -10 -1 -10 4 0 6 5 11 10 11 6 0 10 -2 10 -4z m-2110
-31 c0 -8 -7 -15 -15 -15 -9 0 -12 6 -9 15 4 8 10 15 15 15 5 0 9 -7 9 -15z
m240 5 c0 -5 -6 -10 -14 -10 -8 0 -18 5 -21 10 -3 6 3 10 14 10 12 0 21 -4 21
-10z m232 -5 c0 -5 -5 -11 -11 -13 -6 -2 -11 4 -11 13 0 9 5 15 11 13 6 -2 11
-8 11 -13z m-344 -24 c3 -8 -1 -12 -9 -9 -7 2 -15 10 -17 17 -3 8 1 12 9 9 7
-2 15 -10 17 -17z m42 4 c0 -8 -4 -15 -10 -15 -5 0 -10 7 -10 15 0 8 5 15 10
15 6 0 10 -7 10 -15z m177 9 c-3 -3 -12 -4 -19 -1 -8 3 -5 6 6 6 11 1 17 -2
13 -5z m231 -24 c15 0 22 -5 19 -12 -4 -14 -56 -12 -71 2 -4 4 -5 14 -1 20 5
8 10 9 18 1 6 -6 22 -11 35 -11z m90 8 c-3 -7 -15 -13 -28 -13 -13 0 -25 6
-27 13 -3 8 6 12 27 12 21 0 30 -4 28 -12z m559 4 c21 -13 -53 -35 -74 -23
-16 9 -14 10 9 11 15 0 30 5 33 10 7 12 16 12 32 2z m-877 -16 c0 -9 -30 -14
-35 -6 -4 6 3 10 14 10 12 0 21 -2 21 -4z m-270 -30 c0 -8 -4 -18 -10 -21 -5
-3 -10 3 -10 14 0 12 5 21 10 21 6 0 10 -6 10 -14z m180 -6 c0 -5 -4 -10 -10
-10 -5 0 -10 5 -10 10 0 6 5 10 10 10 6 0 10 -4 10 -10z m338 -16 c-11 -11
-18 -12 -22 -5 -4 6 0 11 8 11 9 0 16 5 16 12 0 6 3 8 7 4 4 -3 0 -14 -9 -22z
m667 16 c8 -13 -31 -27 -85 -31 -28 -2 -45 1 -48 9 -2 8 8 12 30 13 18 0 42 4
53 9 27 12 43 12 50 0z m-745 -10 c0 -5 -9 -10 -21 -10 -11 0 -17 5 -14 10 3
6 13 10 21 10 8 0 14 -4 14 -10z m-556 -15 c7 -20 -43 -20 -70 0 -18 13 -16
14 22 15 28 0 44 -5 48 -15z m476 6 c0 -5 10 -12 23 -14 21 -4 21 -4 1 -6 -12
0 -27 6 -34 14 -9 10 -9 15 -1 15 6 0 11 -4 11 -9z m-297 -18 c-7 -2 -19 -2
-25 0 -7 3 -2 5 12 5 14 0 19 -2 13 -5z m427 -27 c0 -6 -19 -12 -45 -13 -28
-1 -51 -9 -63 -21 -14 -14 -27 -18 -48 -13 l-29 6 29 3 c16 2 36 12 45 22 28
33 111 45 111 16z m-660 -6 c0 -5 -7 -10 -15 -10 -8 0 -15 5 -15 10 0 6 7 10
15 10 8 0 15 -4 15 -10z m90 -10 c0 -5 -10 -10 -22 -9 -22 0 -22 1 -3 9 11 5
21 9 23 9 1 1 2 -3 2 -9z m974 -11 c-7 -11 -34 -12 -34 -1 0 14 11 21 26 15 8
-3 11 -9 8 -14z m121 11 c4 -6 -7 -10 -27 -9 -31 1 -32 1 -8 9 14 4 26 8 27 9
1 1 5 -3 8 -9z m-495 -21 c0 -5 -4 -9 -10 -9 -5 0 -10 7 -10 16 0 8 5 12 10 9
6 -3 10 -10 10 -16z m-100 -5 c0 -8 -4 -12 -10 -9 -5 3 -10 10 -10 16 0 5 5 9
10 9 6 0 10 -7 10 -16z m258 -2 c2 -7 -3 -12 -12 -12 -9 0 -16 7 -16 16 0 17
22 14 28 -4z m86 -47 c-32 -30 -49 -33 -32 -5 7 11 16 20 20 20 5 0 8 6 8 13
0 7 6 19 13 26 10 10 13 8 15 -8 2 -13 -7 -31 -24 -46z m-284 51 c0 -3 -4 -8
-10 -11 -5 -3 -10 -1 -10 4 0 6 5 11 10 11 6 0 10 -2 10 -4z m154 -37 c-6 -11
-24 -2 -24 11 0 5 7 7 15 4 8 -4 12 -10 9 -15z m566 -29 c0 -5 -7 -10 -15 -10
-8 0 -15 5 -15 10 0 6 7 10 15 10 8 0 15 -4 15 -10z m755 0 c4 -6 -5 -10 -20
-10 -14 0 -34 -6 -45 -12 -15 -10 -22 -10 -32 0 -9 9 -6 12 14 12 15 0 30 5
33 10 3 6 15 10 25 10 10 0 22 -4 25 -10z m-1952 -21 c-6 -6 -9 -18 -6 -25 3
-8 -1 -14 -11 -14 -9 0 -16 4 -16 9 0 22 13 41 28 41 12 0 13 -3 5 -11z m1994
-21 c-3 -8 -6 -5 -6 6 -1 11 2 17 5 13 3 -3 4 -12 1 -19z m-1710 6 c-3 -3 -12
-4 -19 -1 -8 3 -5 6 6 6 11 1 17 -2 13 -5z m-205 -36 c-15 -15 -24 -6 -16 16
5 12 10 14 17 7 8 -8 8 -14 -1 -23z m288 22 c0 -5 -11 -10 -24 -10 -14 0 -28
5 -31 10 -4 6 7 10 24 10 17 0 31 -4 31 -10z m80 -17 c0 -8 -4 -23 -10 -33 -7
-13 -6 -19 5 -24 10 -4 15 1 15 14 0 19 22 29 60 29 8 0 26 3 39 7 18 5 23 4
19 -7 -3 -8 -13 -15 -24 -17 -49 -7 -64 -13 -64 -26 0 -14 -41 -24 -73 -18
-10 2 -16 11 -15 20 3 14 -5 17 -44 14 -27 -2 -48 1 -48 7 0 14 59 32 86 25
20 -5 24 -2 24 15 0 14 5 19 15 15 8 -4 15 -13 15 -21z m160 17 c0 -5 -4 -10
-10 -10 -5 0 -10 5 -10 10 0 6 5 10 10 10 6 0 10 -4 10 -10z m1220 0 c0 -5
-11 -10 -25 -10 -14 0 -25 5 -25 10 0 6 11 10 25 10 14 0 25 -4 25 -10z
m-1540 -30 c0 -5 -7 -10 -16 -10 -8 0 -12 5 -9 10 3 6 10 10 16 10 5 0 9 -4 9
-10z m1535 0 c4 -6 -5 -10 -20 -10 -15 0 -24 4 -20 10 3 6 12 10 20 10 8 0 17
-4 20 -10z m-1165 -15 c-7 -8 -19 -15 -27 -15 -13 0 -13 3 -3 15 7 8 19 15 27
15 13 0 13 -3 3 -15z m483 -50 c-5 -82 -8 -98 -20 -102 -10 -4 -13 15 -13 72
0 67 2 76 18 73 13 -3 16 -12 15 -43z m-778 15 c18 -2 17 -3 -4 -9 -28 -8
-108 -1 -93 8 9 6 51 6 97 1z m228 4 c9 -9 -64 -45 -75 -38 -14 9 24 43 48 43
11 1 23 -2 27 -5z m72 -4 c3 -5 1 -10 -4 -10 -6 0 -11 -7 -11 -15 0 -9 -9 -15
-25 -15 -22 0 -24 3 -15 19 14 27 44 39 55 21z m228 -6 c7 -8 -62 -74 -76 -74
-6 0 -16 -8 -23 -17 -15 -22 -19 -18 -27 24 -4 22 -2 37 9 48 19 19 38 20 31
1 -7 -18 35 -9 46 11 8 14 29 17 40 7z m-166 -19 c9 -24 -1 -27 -15 -5 -8 13
-8 20 -2 20 6 0 13 -7 17 -15z m-490 -21 c-9 -9 -28 6 -21 18 4 6 10 6 17 -1
6 -6 8 -13 4 -17z m183 6 c0 -5 -6 -10 -14 -10 -8 0 -18 5 -21 10 -3 6 3 10
14 10 12 0 21 -4 21 -10z m1454 -7 c8 3 18 1 22 -4 4 -7 -4 -9 -22 -7 -15 2
-29 10 -31 18 -4 12 -3 13 5 1 6 -8 17 -11 26 -8z m-1374 -3 c12 -8 9 -10 -12
-10 -16 0 -28 5 -28 10 0 13 20 13 40 0z m167 -12 c66 1 78 -6 68 -39 -6 -19
-8 -19 -19 -3 -8 10 -20 15 -29 11 -9 -3 -19 -2 -22 3 -4 6 -33 10 -66 10 -32
0 -59 4 -59 9 0 14 22 21 45 14 11 -3 48 -5 82 -5z m-584 -28 c-3 -11 -9 -17
-14 -14 -14 8 -10 34 5 34 9 0 12 -7 9 -20z m164 3 c4 -12 -57 -47 -65 -38 -7
7 41 53 52 51 6 -1 11 -7 13 -13z m-227 -8 c0 -8 -9 -15 -20 -15 -11 0 -20 7
-20 15 0 8 9 15 20 15 11 0 20 -7 20 -15z m400 5 c-25 -4 -49 -4 -54 1 -6 5
12 8 45 8 l54 -2 -45 -7z m1547 4 c-3 -4 -21 -8 -38 -10 -47 -6 -49 -14 -3
-14 47 -1 30 -14 -31 -25 -33 -6 -38 -5 -27 6 18 19 15 32 -7 26 -14 -3 -18
-1 -14 9 4 10 23 14 66 14 33 0 58 -3 54 -6z m-1427 -14 c12 -8 11 -10 -7 -10
-13 0 -23 -4 -23 -10 0 -5 -12 -10 -27 -9 l-28 1 28 11 c15 6 27 14 27 19 0
11 12 10 30 -2z m110 0 c11 -7 3 -10 -30 -9 -34 0 -40 2 -25 9 27 12 37 12 55
0z m-266 -20 c15 -5 8 -8 -25 -13 -45 -6 -67 3 -55 22 7 11 35 7 80 -9z m1450
1 c9 -15 -23 -36 -36 -23 -5 5 -7 15 -4 21 9 13 33 14 40 2z m-1244 -11 c12
-8 9 -10 -13 -10 -16 0 -26 4 -22 10 8 12 16 12 35 0z m-466 -35 c-23 -18 -56
-16 -62 4 -3 10 2 12 19 8 13 -3 31 -2 39 3 22 14 26 2 4 -15z m313 -1 c15
-17 21 -29 14 -33 -6 -4 7 -18 29 -33 31 -20 37 -27 25 -32 -9 -3 -13 -10 -10
-16 4 -6 -5 -10 -19 -10 -33 0 -43 18 -15 28 19 7 16 10 -26 26 -28 11 -58 16
-76 12 -24 -5 -29 -2 -29 14 0 11 5 20 10 20 6 0 10 7 10 15 0 8 9 15 20 15
11 0 20 5 20 10 0 18 22 10 47 -16z m48 16 c3 -6 -4 -10 -17 -10 -18 0 -20 2
-8 10 19 12 18 12 25 0z m-311 -45 c-19 -36 -37 -41 -42 -12 -2 10 3 17 12 17
8 0 20 9 26 21 7 11 14 18 17 15 4 -3 -2 -22 -13 -41z m353 13 c-3 -7 -5 -2
-5 12 0 14 2 19 5 13 2 -7 2 -19 0 -25z m-202 12 c3 -5 1 -10 -4 -10 -6 0 -11
5 -11 10 0 6 2 10 4 10 3 0 8 -4 11 -10z m340 0 c3 -5 1 -10 -4 -10 -6 0 -11
5 -11 10 0 6 2 10 4 10 3 0 8 -4 11 -10z m55 -25 c0 -19 9 -19 31 1 16 14 19
14 38 -5 12 -12 21 -27 21 -33 0 -10 -2 -10 -8 -1 -8 13 -102 15 -119 1 -7 -5
-14 -5 -18 2 -3 5 1 10 9 10 9 0 16 9 16 20 0 11 7 20 15 20 8 0 15 -7 15 -15z
m-466 -3 c2 -4 0 -14 -5 -22 -8 -11 -12 -12 -15 -3 -3 7 -12 9 -20 6 -8 -3
-14 0 -14 5 0 9 15 16 42 21 4 0 9 -3 12 -7z m51 -3 c10 -15 -1 -23 -20 -15
-9 3 -13 10 -10 16 8 13 22 13 30 -1z m345 -11 c0 -7 -5 -20 -10 -28 -8 -12
-10 -9 -10 13 0 15 5 27 10 27 6 0 10 -6 10 -12z m-76 -23 c7 19 36 20 36 1 0
-8 3 -22 7 -31 5 -14 2 -16 -15 -10 -13 4 -22 2 -22 -4 0 -6 -7 -11 -16 -11
-8 0 -13 4 -9 9 3 6 -2 14 -11 19 -12 6 -15 16 -10 28 7 18 8 18 21 1 11 -15
13 -16 19 -2z m-454 -16 c0 -5 -7 -9 -15 -9 -8 0 -15 7 -15 15 0 9 6 12 15 9
8 -4 15 -10 15 -15z m120 0 c0 -13 -25 -39 -38 -39 -5 0 -12 9 -15 21 -4 16
-3 18 8 9 10 -9 15 -6 20 10 6 20 25 19 25 -1z m43 9 c3 -10 8 -10 21 1 15 13
19 13 27 0 6 -10 11 -11 17 -2 8 12 62 6 62 -7 0 -11 -46 -21 -64 -14 -9 3
-16 2 -16 -4 0 -6 6 -12 13 -15 7 -2 8 -8 3 -13 -5 -5 -15 1 -23 14 -19 27
-35 28 -58 2 -10 -11 -22 -17 -27 -14 -6 4 -6 10 1 17 6 6 11 19 11 29 0 20
26 25 33 6z m437 -18 c0 -12 -28 -25 -36 -17 -9 9 6 27 22 27 8 0 14 -5 14
-10z m63 3 c-7 -2 -19 -2 -25 0 -7 3 -2 5 12 5 14 0 19 -2 13 -5z m-626 -29
c-3 -3 -12 -4 -19 -1 -8 3 -5 6 6 6 11 1 17 -2 13 -5z m145 -6 c-9 -9 -15 -9
-24 0 -9 9 -7 12 12 12 19 0 21 -3 12 -12z m88 2 c0 -5 -4 -10 -10 -10 -5 0
-10 5 -10 10 0 6 5 10 10 10 6 0 10 -4 10 -10z m750 -66 c6 -14 11 -111 12
-215 1 -105 5 -192 10 -195 19 -12 -3 -84 -25 -84 -3 0 -15 25 -26 55 -22 59
-28 156 -12 199 6 13 11 79 13 145 3 120 10 144 28 95z m-94 -189 c-3 -9 0
-15 9 -15 8 0 15 -7 15 -16 0 -11 -5 -14 -16 -10 -12 5 -14 1 -9 -15 5 -16 -1
-28 -27 -50 -18 -15 -39 -28 -45 -29 -7 0 -13 -4 -13 -10 0 -5 -7 -10 -15 -10
-8 0 -15 -4 -15 -10 0 -5 6 -10 14 -10 23 0 86 30 86 40 0 6 5 10 10 10 6 0
10 -6 10 -14 0 -8 6 -16 12 -18 10 -4 10 -15 0 -54 -6 -27 -14 -76 -17 -108
-3 -33 -8 -62 -11 -65 -3 -3 -61 -6 -127 -6 -67 0 -127 -3 -132 -7 -6 -4 -17
-3 -25 3 -8 5 -10 9 -5 9 6 0 3 5 -5 10 -8 5 -34 10 -57 10 -24 0 -43 5 -43
10 0 6 11 8 25 4 19 -5 25 -2 25 11 0 15 -7 17 -62 11 -46 -5 -75 -3 -107 9
-24 8 -56 15 -70 15 -15 0 -31 4 -37 9 -5 5 -18 11 -29 14 -17 4 -16 5 5 6 14
1 32 6 40 12 11 7 3 9 -30 8 -62 -1 -67 0 -50 11 8 5 29 10 45 11 17 1 -17 7
-75 14 -58 7 -94 13 -81 14 20 1 21 3 11 16 -7 8 -25 15 -41 15 -30 0 -47 15
-26 23 7 3 24 3 38 0 25 -4 214 11 309 26 181 28 435 95 475 125 26 20 49 20
41 1z m-926 -170 c0 -8 -9 -15 -20 -15 -13 0 -18 5 -14 15 4 8 12 15 20 15 8
0 14 -7 14 -15z m1100 -75 c0 -11 -7 -20 -15 -20 -15 0 -21 21 -8 33 12 13 23
7 23 -13z m727 -116 c-3 -3 -12 -4 -19 -1 -8 3 -5 6 6 6 11 1 17 -2 13 -5z
m93 2 c0 -2 -7 -6 -15 -10 -8 -3 -15 -1 -15 4 0 6 7 10 15 10 8 0 15 -2 15 -4z
m-150 -16 c0 -12 -17 -12 -45 0 -17 7 -15 9 13 9 17 1 32 -3 32 -9z m-1397 -7
c-7 -2 -19 -2 -25 0 -7 3 -2 5 12 5 14 0 19 -2 13 -5z m193 -23 c29 -9 66 -15
83 -12 19 2 31 0 31 -7 0 -6 6 -11 14 -11 8 0 16 -5 18 -11 2 -6 13 -9 23 -7
17 4 14 7 -15 20 -49 23 -19 22 113 -3 84 -16 118 -27 136 -44 36 -35 23 -54
-35 -47 -34 3 -45 2 -40 -7 4 -6 17 -11 29 -12 12 0 16 -3 10 -6 -15 -6 -17
-33 -3 -33 6 0 10 -7 10 -15 0 -8 -9 -15 -19 -15 -14 0 -18 -5 -14 -21 5 -19
2 -20 -30 -18 -20 2 -39 0 -43 -4 -14 -13 -45 -7 -51 11 -20 52 -84 107 -191
164 -31 17 -60 36 -64 43 -4 7 -28 18 -53 25 -25 7 -45 16 -45 21 0 4 -10 10
-22 13 -13 2 6 2 42 -1 35 -3 88 -13 116 -23z m1141 14 c2 -7 -16 -14 -44 -18
-50 -7 -117 -27 -129 -39 -4 -4 -15 -7 -24 -7 -9 0 -64 -31 -122 -70 -89 -58
-108 -75 -122 -110 -20 -50 -50 -53 -51 -5 0 23 4 30 19 30 13 0 23 11 29 30
15 45 26 56 56 49 25 -6 25 -6 6 9 l-20 16 20 16 c13 9 31 13 49 10 29 -5 29
-5 10 16 -18 20 -18 20 9 14 21 -6 27 -4 27 9 0 12 10 16 35 16 19 0 35 5 35
10 0 6 12 10 28 10 15 1 38 7 52 15 29 17 131 16 137 -1z m-417 -49 c11 -13
10 -14 -4 -9 -9 3 -16 10 -16 15 0 13 6 11 20 -6z m-60 -8 c0 -13 -62 -46 -76
-40 -13 5 -6 11 27 24 50 20 49 20 49 16z m-900 -178 c0 -19 -7 -32 -21 -40
-20 -10 -21 -9 -16 12 4 13 7 37 7 53 0 24 2 27 15 16 8 -7 15 -25 15 -41z"/>
<path d="M4766 1912 c-3 -3 -6 -9 -6 -14 0 -11 37 -10 44 1 6 10 -30 22 -38
13z"/>
<path d="M5392 951 c-11 -7 -11 -9 2 -14 10 -4 16 -1 16 8 0 17 -1 17 -18 6z"/>
<path d="M5955 1100 c-3 -5 -1 -10 4 -10 6 0 11 5 11 10 0 6 -2 10 -4 10 -3 0
-8 -4 -11 -10z"/>
<path d="M7572 3386 c7 -8 15 -12 17 -11 5 6 -10 25 -20 25 -5 0 -4 -6 3 -14z"/>
<path d="M7417 3113 c-4 -3 -7 -11 -7 -17 0 -6 5 -5 12 2 6 6 9 14 7 17 -3 3
-9 2 -12 -2z"/>
<path d="M3223 3073 c7 -40 26 -60 91 -94 36 -20 38 -20 31 -2 -4 10 -10 33
-13 51 -3 24 -12 37 -31 45 -14 7 -32 17 -39 24 -7 7 -20 13 -29 13 -12 0 -14
-8 -10 -37z"/>
<path d="M7500 3040 c0 -5 5 -10 10 -10 6 0 10 5 10 10 0 6 -4 10 -10 10 -5 0
-10 -4 -10 -10z"/>
<path d="M7338 2968 c9 -9 15 -9 24 0 9 9 7 12 -12 12 -19 0 -21 -3 -12 -12z"/>
<path d="M7400 2971 c0 -17 18 -21 24 -6 3 9 0 15 -9 15 -8 0 -15 -4 -15 -9z"/>
<path d="M7370 2940 c0 -5 4 -10 9 -10 6 0 13 5 16 10 3 6 -1 10 -9 10 -9 0
-16 -4 -16 -10z"/>
<path d="M7320 2890 c0 -5 4 -10 9 -10 6 0 13 5 16 10 3 6 -1 10 -9 10 -9 0
-16 -4 -16 -10z"/>
<path d="M7398 2853 c7 -3 16 -2 19 1 4 3 -2 6 -13 5 -11 0 -14 -3 -6 -6z"/>
<path d="M7195 2840 c-3 -5 1 -10 9 -10 9 0 16 5 16 10 0 6 -4 10 -9 10 -6 0
-13 -4 -16 -10z"/>
<path d="M7390 2774 c0 -9 9 -18 20 -21 11 -3 20 -12 20 -20 0 -10 6 -13 16
-9 9 3 20 6 25 6 5 0 9 5 9 10 0 6 -9 10 -20 10 -10 0 -24 9 -30 20 -13 24
-40 27 -40 4z"/>
<path d="M6993 2726 c-14 -6 -23 -20 -23 -33 0 -12 -7 -28 -15 -37 -22 -22
-19 -26 24 -26 52 0 95 16 88 34 -3 7 0 19 6 25 8 8 1 11 -26 11 -20 0 -37 5
-37 10 0 6 15 10 33 10 24 0 28 3 17 10 -19 12 -38 11 -67 -4z m34 -52 c-3 -3
-12 -4 -19 -1 -8 3 -5 6 6 6 11 1 17 -2 13 -5z"/>
<path d="M6962 2604 c-6 -11 -11 -13 -16 -5 -4 6 -14 11 -23 11 -13 0 -13 -3
-3 -15 16 -20 49 -19 57 0 8 23 -3 30 -15 9z"/>
<path d="M6830 2570 c0 -18 -3 -19 -21 -9 -17 9 -23 7 -36 -10 -8 -12 -23 -21
-34 -21 -26 0 -26 -51 0 -67 17 -11 20 -9 23 10 2 16 10 22 30 23 15 1 34 7
43 14 12 10 15 10 15 -4 0 -9 5 -16 10 -16 16 0 12 30 -6 37 -11 4 -13 13 -9
34 4 18 2 29 -4 29 -6 0 -11 -9 -11 -20z"/>
<path d="M3991 2564 c0 -11 3 -14 6 -6 3 7 2 16 -1 19 -3 4 -6 -2 -5 -13z"/>
<path d="M6891 2561 c-19 -12 -4 -31 25 -31 26 0 31 9 12 28 -14 14 -19 15
-37 3z"/>
<path d="M4020 2530 c0 -5 7 -10 15 -10 8 0 15 5 15 10 0 6 -7 10 -15 10 -8 0
-15 -4 -15 -10z"/>
<path d="M3950 2499 c0 -5 5 -7 10 -4 6 3 10 8 10 11 0 2 -4 4 -10 4 -5 0 -10
-5 -10 -11z"/>
<path d="M3900 2475 c7 -8 16 -15 21 -15 5 0 9 7 9 15 0 9 -9 15 -21 15 -18 0
-19 -2 -9 -15z"/>
<path d="M3841 2464 c0 -11 3 -14 6 -6 3 7 2 16 -1 19 -3 4 -6 -2 -5 -13z"/>
<path d="M3970 2470 c0 -5 5 -10 10 -10 6 0 10 5 10 10 0 6 -4 10 -10 10 -5 0
-10 -4 -10 -10z"/>
<path d="M3955 2440 c-4 -6 5 -10 20 -10 15 0 24 4 20 10 -3 6 -12 10 -20 10
-8 0 -17 -4 -20 -10z"/>
<path d="M6667 2415 c-4 -8 -2 -17 3 -20 6 -4 10 3 10 14 0 25 -6 27 -13 6z"/>
<path d="M6722 2410 c0 -14 2 -19 5 -12 2 6 2 18 0 25 -3 6 -5 1 -5 -13z"/>
<path d="M6761 2414 c0 -11 3 -14 6 -6 3 7 2 16 -1 19 -3 4 -6 -2 -5 -13z"/>
<path d="M3920 2410 c0 -5 5 -10 10 -10 6 0 10 5 10 10 0 6 -4 10 -10 10 -5 0
-10 -4 -10 -10z"/>
<path d="M4000 2410 c0 -5 5 -10 10 -10 6 0 10 5 10 10 0 6 -4 10 -10 10 -5 0
-10 -4 -10 -10z"/>
<path d="M6630 2396 c0 -9 5 -16 10 -16 6 0 10 4 10 9 0 6 -4 13 -10 16 -5 3
-10 -1 -10 -9z"/>
<path d="M3968 2383 c6 -2 18 -2 25 0 6 3 1 5 -13 5 -14 0 -19 -2 -12 -5z"/>
<path d="M6911 2374 c0 -11 3 -14 6 -6 3 7 2 16 -1 19 -3 4 -6 -2 -5 -13z"/>
<path d="M6742 2350 c0 -14 2 -19 5 -12 2 6 2 18 0 25 -3 6 -5 1 -5 -13z"/>
<path d="M6978 2363 c-10 -2 -18 -11 -18 -19 0 -20 13 -17 28 6 7 11 11 19 10
19 -2 -1 -11 -3 -20 -6z"/>
<path d="M7016 2362 c-3 -6 -1 -14 5 -17 15 -10 25 3 12 16 -7 7 -13 7 -17 1z"/>
<path d="M6648 2338 c4 -13 13 -32 20 -43 11 -19 13 -19 22 -3 9 14 15 15 35
6 19 -9 29 -7 55 12 23 16 28 25 19 31 -7 4 -17 2 -23 -6 -6 -7 -32 -15 -58
-18 -36 -5 -47 -3 -52 9 -3 9 -4 20 0 25 3 5 -1 9 -10 9 -10 0 -12 -6 -8 -22z"/>
<path d="M6870 2334 c-14 -7 -20 -14 -15 -15 16 -3 65 -5 65 -3 0 10 -14 34
-19 33 -3 -1 -17 -7 -31 -15z"/>
<path d="M4088 2319 c17 -18 15 -39 -3 -39 -16 0 -21 -15 -7 -23 9 -6 52 28
52 40 0 6 -12 15 -27 22 -23 10 -26 10 -15 0z"/>
<path d="M4157 2266 c-4 -9 3 -16 19 -19 28 -5 30 -1 10 19 -18 18 -22 18 -29
0z"/>
<path d="M6700 2250 c0 -5 5 -10 10 -10 6 0 10 5 10 10 0 6 -4 10 -10 10 -5 0
-10 -4 -10 -10z"/>
<path d="M6641 2229 c-9 -16 -9 -24 0 -35 26 -31 51 1 27 35 -14 20 -14 20
-27 0z"/>
<path d="M4020 2230 c0 -5 5 -10 10 -10 6 0 10 5 10 10 0 6 -4 10 -10 10 -5 0
-10 -4 -10 -10z"/>
<path d="M4170 2220 c0 -13 11 -13 30 0 12 8 11 10 -7 10 -13 0 -23 -4 -23
-10z"/>
<path d="M7033 2223 c-7 -3 -13 -8 -13 -13 0 -11 28 -21 34 -12 7 12 -8 29
-21 25z"/>
<path d="M7100 2215 c0 -8 5 -15 10 -15 6 0 10 7 10 15 0 8 -4 15 -10 15 -5 0
-10 -7 -10 -15z"/>
<path d="M7210 2220 c0 -5 7 -7 15 -4 8 4 15 8 15 10 0 2 -7 4 -15 4 -8 0 -15
-4 -15 -10z"/>
<path d="M4062 2198 c7 -20 48 -23 48 -4 0 11 -9 16 -26 16 -16 0 -24 -5 -22
-12z"/>
<path d="M4268 2204 c-5 -4 -8 -16 -8 -26 0 -10 -3 -18 -7 -18 -5 0 -6 -22 -5
-50 2 -27 9 -50 14 -50 6 0 8 12 5 29 -3 15 -1 33 4 38 6 6 9 27 7 48 -2 20
-6 33 -10 29z"/>
<path d="M4183 2171 c-9 -15 -9 -23 2 -37 13 -17 14 -16 15 19 0 43 -1 44 -17
18z"/>
<path d="M6799 2170 c-3 -17 -10 -24 -21 -22 -9 1 -19 -2 -23 -8 -9 -14 28
-13 47 3 11 8 13 18 8 32 -7 18 -8 18 -11 -5z"/>
<path d="M6923 2183 c-18 -2 -33 -8 -33 -13 0 -5 -10 -11 -22 -13 -20 -4 -20
-4 4 -6 15 0 30 -5 33 -11 3 -5 13 -10 22 -10 13 0 13 3 3 15 -10 12 -9 15 7
15 10 0 28 7 39 15 19 14 19 14 -1 13 -11 -1 -35 -3 -52 -5z"/>
<path d="M4018 2173 c7 -3 16 -2 19 1 4 3 -2 6 -13 5 -11 0 -14 -3 -6 -6z"/>
<path d="M6720 2169 c0 -5 5 -7 10 -4 6 3 10 8 10 11 0 2 -4 4 -10 4 -5 0 -10
-5 -10 -11z"/>
<path d="M6625 2150 c-4 -6 -3 -16 3 -22 13 -13 23 4 13 21 -7 10 -10 10 -16
1z"/>
<path d="M4120 2133 c0 -7 32 -32 43 -33 17 0 5 18 -18 28 -14 6 -25 9 -25 5z"/>
<path d="M6820 2110 c0 -5 9 -10 20 -10 11 0 20 5 20 10 0 6 -9 10 -20 10 -11
0 -20 -4 -20 -10z"/>
<path d="M4108 2083 c7 -3 16 -2 19 1 4 3 -2 6 -13 5 -11 0 -14 -3 -6 -6z"/>
<path d="M4280 2065 c0 -14 5 -25 10 -25 6 0 10 11 10 25 0 14 -4 25 -10 25
-5 0 -10 -11 -10 -25z"/>
<path d="M6494 2073 c-10 -16 -15 -16 -34 -5 -20 12 -25 11 -44 -8 -21 -21
-21 -21 -2 -36 11 -8 27 -14 35 -14 14 1 13 3 -1 14 -28 21 -22 26 32 26 28 0
50 -4 50 -10 0 -5 9 -10 20 -10 20 0 20 0 -2 30 -25 34 -38 37 -54 13z"/>
<path d="M4108 2053 c7 -3 16 -2 19 1 4 3 -2 6 -13 5 -11 0 -14 -3 -6 -6z"/>
<path d="M4170 2040 c-24 -8 -23 -8 8 -9 17 -1 32 4 32 9 0 11 -5 11 -40 0z"/>
<path d="M4228 2033 c6 -2 18 -2 25 0 6 3 1 5 -13 5 -14 0 -19 -2 -12 -5z"/>
<path d="M4230 2000 c0 -5 -10 -10 -23 -10 -21 0 -23 -4 -18 -32 l5 -33 10 28
c7 20 16 27 38 27 20 0 26 4 22 15 -7 17 -34 21 -34 5z"/>
<path d="M4218 1883 c7 -3 16 -2 19 1 4 3 -2 6 -13 5 -11 0 -14 -3 -6 -6z"/>
<path d="M5668 1313 c7 -3 16 -2 19 1 4 3 -2 6 -13 5 -11 0 -14 -3 -6 -6z"/>
</g>
</svg>
